<?xml version="1.0" encoding="UTF-8"?>
<svg version="1.1" xmlns="http://www.w3.org/2000/svg" width="435" height="435">
<path d="M0 0 C0.66 0 1.32 0 2 0 C2 0.66 2 1.32 2 2 C2.85078125 1.97679687 3.7015625 1.95359375 4.578125 1.9296875 C26.52778699 1.60277764 48.51069128 4.51210829 69.17822266 12.06933594 C72.91077507 13.4185768 76.01417442 14.3432022 80 14 C80 14.66 80 15.32 80 16 C81.74802146 16.81674796 83.49850189 17.62823451 85.25 18.4375 C86.22453125 18.88996094 87.1990625 19.34242187 88.203125 19.80859375 C90.84573006 21.03743694 90.84573006 21.03743694 93.171875 21.47265625 C95.48207491 22.13906007 96.35721436 23.27231588 98 25 C99.37444421 25.84818044 100.77382721 26.65645187 102.1875 27.4375 C118.3761199 37.01419811 134.24330404 49.7695768 145.38671875 65.01171875 C146.92597423 67.08201961 146.92597423 67.08201961 149.08203125 68.51953125 C151.27822117 70.21475728 151.80538146 71.525453 153 74 C153.84754021 75.35880804 154.715938 76.70476383 155.6015625 78.0390625 C156.09140625 78.78414063 156.58125 79.52921875 157.0859375 80.296875 C158.11794978 81.85799002 159.15182655 83.41787396 160.1875 84.9765625 C160.67476563 85.7190625 161.16203125 86.4615625 161.6640625 87.2265625 C162.11217285 87.90283691 162.5602832 88.57911133 163.02197266 89.27587891 C164 91 164 91 164 93 C164.66 93.33 165.32 93.66 166 94 C167.09741211 96.11376953 167.09741211 96.11376953 168.27734375 98.8828125 C168.70853516 99.88570313 169.13972656 100.88859375 169.58398438 101.921875 C170.03064453 102.97890625 170.47730469 104.0359375 170.9375 105.125 C171.38029297 106.15882813 171.82308594 107.19265625 172.27929688 108.2578125 C173.14109973 110.27168266 173.9992801 112.28710754 174.85351562 114.30419922 C175.79063206 116.50770001 176.74862556 118.69985112 177.71484375 120.890625 C178.91161765 123.78616308 179.83102831 126.59743762 180.625 129.625 C180.86476563 130.52476562 181.10453125 131.42453125 181.3515625 132.3515625 C182.17800095 135.72701591 182.83822055 139.11769025 183.46484375 142.53515625 C183.62082031 143.36917969 183.77679688 144.20320312 183.9375 145.0625 C184.09089844 145.89910156 184.24429687 146.73570312 184.40234375 147.59765625 C184.99172331 149.96673093 185.82397999 151.86938634 187 154 C186.34 154 185.68 154 185 154 C185.20496094 154.86882812 185.40992188 155.73765625 185.62109375 156.6328125 C185.89050781 157.78523437 186.15992188 158.93765625 186.4375 160.125 C186.83775391 161.83042969 186.83775391 161.83042969 187.24609375 163.5703125 C188.40560555 168.84519 189.13035646 172.72500318 188 178 C187.61887341 183.14820964 187.61887341 183.14820964 189 188 C188.49812817 189.63944799 187.99462471 191.27842541 187.48046875 192.9140625 C186.6365649 196.57784019 186.84748633 200.26341505 187 204 C186.34 204 185.68 204 185 204 C185.20496094 204.83789062 185.40992188 205.67578125 185.62109375 206.5390625 C186.07253398 210.66252687 185.29114031 213.42845839 184.0625 217.375 C183.68222656 218.62023437 183.30195313 219.86546875 182.91015625 221.1484375 C182.60980469 222.08945312 182.30945313 223.03046875 182 224 C182.66 224.33 183.32 224.66 184 225 C183.34 225.66 182.68 226.32 182 227 C181.67 228.010625 181.34 229.02125 181 230.0625 C180 233 180 233 178 234 C177.55628163 236.11192878 177.11468952 238.22432572 176.68359375 240.33886719 C175.43288879 245.20768294 173.1948391 249.62071667 171 254.125 C170.51160645 255.13401367 170.02321289 256.14302734 169.52001953 257.18261719 C158.61000034 279.25629502 141.72979145 301.07792784 122 316 C121.34 316 120.68 316 120 316 C120 316.66 120 317.32 120 318 C117.86633269 319.62170978 115.74251027 321.10388707 113.5 322.5625 C112.82509521 323.00505127 112.15019043 323.44760254 111.45483398 323.90356445 C99.16874134 331.86123106 86.53075451 338.43032796 73 344 C72.08605469 344.39316406 71.17210937 344.78632813 70.23046875 345.19140625 C68 346 68 346 65 346 C64.67 346.66 64.34 347.32 64 348 C61.13832259 348.80248097 58.34416061 349.47039208 55.4375 350.0625 C54.16640381 350.32909424 54.16640381 350.32909424 52.86962891 350.60107422 C45.87752761 351.99114102 39.04658533 352.54335523 31.9296875 352.7265625 C30.96289062 352.81679688 29.99609375 352.90703125 29 353 C28.67 353.66 28.34 354.32 28 355 C27.154375 354.98839844 26.30875 354.97679687 25.4375 354.96484375 C17.88445234 354.87700366 17.88445234 354.87700366 10.375 355.5625 C7 356 7 356 4 355 C0.41066531 354.94204909 -3.16346795 354.97849735 -6.75195312 355.0390625 C-7.49251953 355.04679687 -8.23308594 355.05453125 -8.99609375 355.0625 C-9.66825928 355.07410156 -10.3404248 355.08570313 -11.03295898 355.09765625 C-13.15579976 354.99226512 -14.95138567 354.56139912 -17 354 C-20.84950928 353.12468736 -24.70626157 352.28260566 -28.5625 351.4375 C-29.61630859 351.20353516 -30.67011719 350.96957031 -31.75585938 350.72851562 C-33.27083008 350.3969043 -33.27083008 350.3969043 -34.81640625 350.05859375 C-35.73881104 349.85548584 -36.66121582 349.65237793 -37.61157227 349.44311523 C-40.08674687 348.90879342 -40.08674687 348.90879342 -43 349 C-43 348.34 -43 347.68 -43 347 C-44.92005859 346.61521484 -44.92005859 346.61521484 -46.87890625 346.22265625 C-52.08004914 345.0662807 -56.96455895 343.32916777 -61.9375 341.4375 C-62.78634766 341.12103516 -63.63519531 340.80457031 -64.50976562 340.47851562 C-70.62797619 338.1860119 -70.62797619 338.1860119 -73 337 C-73 336.34 -73 335.68 -73 335 C-74.0725 334.9175 -75.145 334.835 -76.25 334.75 C-80.36249361 333.92750128 -81.3261182 333.05586492 -84 330 C-84.99 329.67 -85.98 329.34 -87 329 C-89.74255502 326.91594763 -92.42535962 324.78052634 -95.0859375 322.59375 C-98.33873035 320.0035631 -100.81384857 318.37628327 -105 318 C-105 317.01 -105 316.02 -105 315 C-106.3248613 313.53491289 -106.3248613 313.53491289 -108.1875 312.125 C-120.39076257 301.8725254 -130.59656375 290.19760863 -139.5546875 277.03125 C-140.97949968 274.90970337 -140.97949968 274.90970337 -143 273 C-144.50618665 270.0711021 -145.93762387 267.11922738 -147.34570312 264.14257812 C-148.91542761 260.90438293 -150.40878723 258.4713879 -153 256 C-153.74386068 253.69011685 -154.42190703 251.35684056 -155 249 C-155.66 249 -156.32 249 -157 249 C-157.12375 248.2575 -157.2475 247.515 -157.375 246.75 C-157.8650075 244.06949695 -157.8650075 244.06949695 -158.97851562 242.08959961 C-160.01674539 239.96574478 -160.51139673 238.12872748 -160.96875 235.81640625 C-161.62375889 232.68528466 -162.35260237 229.60690459 -163.21875 226.52734375 C-163.42886719 225.77130859 -163.63898438 225.01527344 -163.85546875 224.23632812 C-164.27805321 222.72911021 -164.70750807 221.223798 -165.14453125 219.72070312 C-168.92316888 205.96228941 -169.37904679 191.92063824 -169.3125 177.75 C-169.31067719 176.94050903 -169.30885437 176.13101807 -169.30697632 175.29699707 C-169.26046553 163.00663393 -168.85871113 151.00883772 -166 139 C-165.83371094 138.29681641 -165.66742188 137.59363281 -165.49609375 136.86914062 C-158.52857228 108.66358148 -145.1285953 83.14813501 -125.84643555 61.52856445 C-123.62763321 59.02410462 -122.07042664 57.21127991 -121 54 C-119.33720673 52.9935725 -117.67016516 51.99414593 -116 51 C-114.97971135 49.68212715 -113.98028616 48.34789347 -113 47 C-111.34997172 45.64613064 -109.6825613 44.31321858 -108 43 C-107.319375 42.29875 -106.63875 41.5975 -105.9375 40.875 C-103.98333974 38.98387717 -102.41562262 38.19021515 -100 37 C-98.56684727 36.09319108 -97.14822274 35.16315493 -95.7421875 34.21484375 C-94.55689453 33.41916992 -94.55689453 33.41916992 -93.34765625 32.60742188 C-92.53167969 32.05634766 -91.71570313 31.50527344 -90.875 30.9375 C-89.24808103 29.84143018 -87.6205082 28.74633008 -85.9921875 27.65234375 C-85.27401855 27.16757568 -84.55584961 26.68280762 -83.81591797 26.18334961 C-82 25 -82 25 -80 24 C-80.495 23.01 -80.495 23.01 -81 22 C-79.81535156 21.73574219 -78.63070312 21.47148438 -77.41015625 21.19921875 C-73.44867074 20.2077612 -70.07578615 18.68963229 -66.4375 16.8125 C-46.88342765 7.27318793 -25.32914526 3.06914903 -3.7109375 2.30859375 C-2.81632813 2.20675781 -1.92171875 2.10492188 -1 2 C-0.67 1.34 -0.34 0.68 0 0 Z " fill="#CEE0B0" transform="translate(211,41)"/>
<path d="M0 0 C1.46307235 -0.00514815 2.92613848 -0.01243614 4.38919067 -0.02168274 C8.33566186 -0.04009148 12.28145159 -0.02732565 16.22789383 -0.00759244 C20.37386008 0.00888314 24.51978618 -0.00003116 28.66577148 -0.00511169 C35.62592355 -0.00962276 42.58580602 0.00617566 49.54589844 0.03417969 C57.57242472 0.0662272 65.59846497 0.06621266 73.62502575 0.04896492 C81.37248465 0.03305574 89.11976677 0.03986153 96.86721802 0.05690193 C100.15248368 0.06374271 103.43760637 0.06277076 106.72286987 0.05535698 C110.59730907 0.04764905 114.47120065 0.05996551 118.34554672 0.08720589 C119.7603887 0.0940439 121.17528228 0.09423737 122.59012222 0.08699036 C131.85980579 0.04501005 140.10748373 0.64785617 147.65625 6.49047852 C152.89756307 12.94542896 155.4269878 17.97802375 155.3203125 26.39282227 C155.3059314 27.86755005 155.3059314 27.86755005 155.29125977 29.37207031 C155.27893311 30.11755127 155.26660645 30.86303223 155.25390625 31.63110352 C156.3526709 31.5630249 157.45143555 31.49494629 158.58349609 31.42480469 C162.70088372 31.18765605 166.81768705 31.03965586 170.93994141 30.91699219 C172.71571622 30.85201695 174.49080611 30.76358693 176.26416016 30.65039062 C190.49796976 29.76528316 190.49796976 29.76528316 194.98339844 32.80200195 C198.53774614 36.24132222 200.85064558 40.3454004 203.25390625 44.63110352 C204.34707373 46.22825583 205.45444099 47.81587728 206.58203125 49.38891602 C207.55896343 50.84265112 208.53291267 52.29839514 209.50390625 53.75610352 C215.08318287 62.02045426 220.91376535 70.07080539 226.8671875 78.06860352 C227.3738797 78.76759766 227.8805719 79.4665918 228.40261841 80.18676758 C230.22385128 82.65929293 230.22385128 82.65929293 232.30593872 84.93112183 C238.87699305 92.73488483 239.34202374 99.56863355 239.0703125 109.32641602 C239.05789872 110.81043093 239.04892179 112.29447815 239.04319763 113.77853394 C239.01855016 117.64905628 238.945043 121.5171431 238.86151123 125.38677979 C238.80107064 128.56166924 238.77492948 131.73641873 238.75053501 134.91176033 C238.70014331 141.45558199 238.62338493 147.99899482 238.49438477 154.54174805 C238.47247574 155.69659698 238.45056671 156.85144592 238.42799377 158.04129028 C238.25390625 160.63110352 238.25390625 160.63110352 237.25390625 161.63110352 C235.61917743 161.71810694 233.9807657 161.73811414 232.34375 161.72875977 C231.35439453 161.72553711 230.36503906 161.72231445 229.34570312 161.71899414 C228.30478516 161.71061523 227.26386719 161.70223633 226.19140625 161.69360352 C225.14662109 161.6890918 224.10183594 161.68458008 223.02539062 161.67993164 C220.43483965 161.66810264 217.84440066 161.65162041 215.25390625 161.63110352 C215.58390625 162.29110352 215.91390625 162.95110352 216.25390625 163.63110352 C217.18741098 175.73605835 216.09616093 185.47427934 208.06640625 195.00610352 C200.34988459 202.96258248 192.34140696 205.92235344 181.50390625 207.00610352 C171.57120099 206.63016447 163.37829438 203.00031767 156.3515625 196.07641602 C151.42129406 190.32902673 148.13383461 184.25657629 148.12109375 176.59204102 C148.11980469 175.84696289 148.11851562 175.10188477 148.1171875 174.33422852 C148.12105469 173.56594727 148.12492188 172.79766602 148.12890625 172.00610352 C148.12503906 171.23008789 148.12117187 170.45407227 148.1171875 169.65454102 C148.12720492 163.88450617 148.12720492 163.88450617 149.25390625 161.63110352 C119.22390625 161.63110352 89.19390625 161.63110352 58.25390625 161.63110352 C59.24390625 164.10610352 59.24390625 164.10610352 60.25390625 166.63110352 C61.41578289 176.06121853 59.91272107 184.70871319 54.1953125 192.40063477 C46.95205894 200.74320169 39.64977877 205.74480599 28.515625 206.92016602 C18.1393262 207.24304943 9.19643533 204.39477856 1.25390625 197.63110352 C-5.53509511 190.63118173 -8.85226951 183.63500229 -8.99609375 173.88110352 C-8.93389328 170.33567678 -8.46828635 167.09733856 -7.74609375 163.63110352 C-8.42712158 163.616521 -9.10814941 163.60193848 -9.80981445 163.58691406 C-12.8933159 163.51247655 -15.97572942 163.41580269 -19.05859375 163.31860352 C-20.66637695 163.28476562 -20.66637695 163.28476562 -22.30664062 163.25024414 C-23.33466797 163.21479492 -24.36269531 163.1793457 -25.421875 163.14282227 C-26.84367065 163.10354614 -26.84367065 163.10354614 -28.29418945 163.06347656 C-31.24267458 162.54353559 -31.96258462 162.0007497 -33.74609375 159.63110352 C-34.12641048 157.11628532 -34.12641048 157.11628532 -34.1337738 154.05392456 C-34.14367844 152.89323959 -34.15358307 151.73255463 -34.16378784 150.53669739 C-34.15928619 149.26186996 -34.15478455 147.98704254 -34.15014648 146.67358398 C-34.15584854 145.31829769 -34.16281216 143.9630162 -34.17094421 142.60774231 C-34.18891831 138.92347988 -34.18769826 135.2394551 -34.18200183 131.55516195 C-34.17891323 128.4765206 -34.1849994 125.39792511 -34.19104058 122.31929028 C-34.20510081 115.05014247 -34.20351473 107.7811121 -34.19213867 100.51196289 C-34.18068139 93.02578115 -34.19468916 85.53995865 -34.22153515 78.05382431 C-34.24374041 71.61968052 -34.25031794 65.18564909 -34.24445873 58.75146973 C-34.24109635 54.91196295 -34.24345483 51.07268591 -34.26070976 47.23321152 C-34.27625187 43.61662267 -34.2721439 40.00056168 -34.25340462 36.38399315 C-34.2479985 34.43554727 -34.26218134 32.4870773 -34.27709961 30.53868103 C-34.20291578 21.65542403 -32.45002921 15.76653422 -27.62109375 8.38110352 C-19.45170588 0.56690643 -10.88878104 -0.09808311 0 0 Z " fill="#6D9E53" transform="translate(128.74609375,132.368896484375)"/>
<path d="M0 0 C1.46307235 -0.00514815 2.92613848 -0.01243614 4.38919067 -0.02168274 C8.33566186 -0.04009148 12.28145159 -0.02732565 16.22789383 -0.00759244 C20.37386008 0.00888314 24.51978618 -0.00003116 28.66577148 -0.00511169 C35.62592355 -0.00962276 42.58580602 0.00617566 49.54589844 0.03417969 C57.57242472 0.0662272 65.59846497 0.06621266 73.62502575 0.04896492 C81.37248465 0.03305574 89.11976677 0.03986153 96.86721802 0.05690193 C100.15248368 0.06374271 103.43760637 0.06277076 106.72286987 0.05535698 C110.59730907 0.04764905 114.47120065 0.05996551 118.34554672 0.08720589 C119.7603887 0.0940439 121.17528228 0.09423737 122.59012222 0.08699036 C131.85980579 0.04501005 140.10748373 0.64785617 147.65625 6.49047852 C152.89756307 12.94542896 155.4269878 17.97802375 155.3203125 26.39282227 C155.3059314 27.86755005 155.3059314 27.86755005 155.29125977 29.37207031 C155.27893311 30.11755127 155.26660645 30.86303223 155.25390625 31.63110352 C156.3526709 31.5630249 157.45143555 31.49494629 158.58349609 31.42480469 C162.70088372 31.18765605 166.81768705 31.03965586 170.93994141 30.91699219 C172.71571622 30.85201695 174.49080611 30.76358693 176.26416016 30.65039062 C190.49796976 29.76528316 190.49796976 29.76528316 194.98339844 32.80200195 C198.53774614 36.24132222 200.85064558 40.3454004 203.25390625 44.63110352 C204.34707373 46.22825583 205.45444099 47.81587728 206.58203125 49.38891602 C207.55896343 50.84265112 208.53291267 52.29839514 209.50390625 53.75610352 C215.08318287 62.02045426 220.91376535 70.07080539 226.8671875 78.06860352 C227.3738797 78.76759766 227.8805719 79.4665918 228.40261841 80.18676758 C230.22385128 82.65929293 230.22385128 82.65929293 232.30593872 84.93112183 C238.87699305 92.73488483 239.34202374 99.56863355 239.0703125 109.32641602 C239.05789872 110.81043093 239.04892179 112.29447815 239.04319763 113.77853394 C239.01855016 117.64905628 238.945043 121.5171431 238.86151123 125.38677979 C238.80107064 128.56166924 238.77492948 131.73641873 238.75053501 134.91176033 C238.70014331 141.45558199 238.62338493 147.99899482 238.49438477 154.54174805 C238.47247574 155.69659698 238.45056671 156.85144592 238.42799377 158.04129028 C238.25390625 160.63110352 238.25390625 160.63110352 237.25390625 161.63110352 C235.61917743 161.71810694 233.9807657 161.73811414 232.34375 161.72875977 C231.35439453 161.72553711 230.36503906 161.72231445 229.34570312 161.71899414 C228.30478516 161.71061523 227.26386719 161.70223633 226.19140625 161.69360352 C225.14662109 161.6890918 224.10183594 161.68458008 223.02539062 161.67993164 C220.43483965 161.66810264 217.84440066 161.65162041 215.25390625 161.63110352 C215.58390625 162.29110352 215.91390625 162.95110352 216.25390625 163.63110352 C217.18741098 175.73605835 216.09616093 185.47427934 208.06640625 195.00610352 C200.34988459 202.96258248 192.34140696 205.92235344 181.50390625 207.00610352 C171.57120099 206.63016447 163.37829438 203.00031767 156.3515625 196.07641602 C151.42129406 190.32902673 148.13383461 184.25657629 148.12109375 176.59204102 C148.11980469 175.84696289 148.11851562 175.10188477 148.1171875 174.33422852 C148.12105469 173.56594727 148.12492188 172.79766602 148.12890625 172.00610352 C148.12503906 171.23008789 148.12117187 170.45407227 148.1171875 169.65454102 C148.12720492 163.88450617 148.12720492 163.88450617 149.25390625 161.63110352 C119.22390625 161.63110352 89.19390625 161.63110352 58.25390625 161.63110352 C59.24390625 164.10610352 59.24390625 164.10610352 60.25390625 166.63110352 C61.41578289 176.06121853 59.91272107 184.70871319 54.1953125 192.40063477 C46.95205894 200.74320169 39.64977877 205.74480599 28.515625 206.92016602 C18.1393262 207.24304943 9.19643533 204.39477856 1.25390625 197.63110352 C-5.53509511 190.63118173 -8.85226951 183.63500229 -8.99609375 173.88110352 C-8.93389328 170.33567678 -8.46828635 167.09733856 -7.74609375 163.63110352 C-8.42712158 163.616521 -9.10814941 163.60193848 -9.80981445 163.58691406 C-12.8933159 163.51247655 -15.97572942 163.41580269 -19.05859375 163.31860352 C-20.66637695 163.28476562 -20.66637695 163.28476562 -22.30664062 163.25024414 C-23.33466797 163.21479492 -24.36269531 163.1793457 -25.421875 163.14282227 C-26.84367065 163.10354614 -26.84367065 163.10354614 -28.29418945 163.06347656 C-31.24267458 162.54353559 -31.96258462 162.0007497 -33.74609375 159.63110352 C-34.12641048 157.11628532 -34.12641048 157.11628532 -34.1337738 154.05392456 C-34.14367844 152.89323959 -34.15358307 151.73255463 -34.16378784 150.53669739 C-34.15928619 149.26186996 -34.15478455 147.98704254 -34.15014648 146.67358398 C-34.15584854 145.31829769 -34.16281216 143.9630162 -34.17094421 142.60774231 C-34.18891831 138.92347988 -34.18769826 135.2394551 -34.18200183 131.55516195 C-34.17891323 128.4765206 -34.1849994 125.39792511 -34.19104058 122.31929028 C-34.20510081 115.05014247 -34.20351473 107.7811121 -34.19213867 100.51196289 C-34.18068139 93.02578115 -34.19468916 85.53995865 -34.22153515 78.05382431 C-34.24374041 71.61968052 -34.25031794 65.18564909 -34.24445873 58.75146973 C-34.24109635 54.91196295 -34.24345483 51.07268591 -34.26070976 47.23321152 C-34.27625187 43.61662267 -34.2721439 40.00056168 -34.25340462 36.38399315 C-34.2479985 34.43554727 -34.26218134 32.4870773 -34.27709961 30.53868103 C-34.20291578 21.65542403 -32.45002921 15.76653422 -27.62109375 8.38110352 C-19.45170588 0.56690643 -10.88878104 -0.09808311 0 0 Z M-24.68359375 17.44360352 C-25.03421875 18.16547852 -25.38484375 18.88735352 -25.74609375 19.63110352 C-26.07609375 20.29110352 -26.40609375 20.95110352 -26.74609375 21.63110352 C-26.83941977 23.40499164 -26.8680084 25.18243012 -26.86634827 26.95877075 C-26.86772293 28.08901672 -26.8690976 29.2192627 -26.87051392 30.38375854 C-26.86691864 31.62956696 -26.86332336 32.87537537 -26.85961914 34.15893555 C-26.85976517 35.46620605 -26.85991119 36.77347656 -26.86006165 38.12036133 C-26.86034925 41.71105113 -26.85445841 45.30170771 -26.84748769 48.89238977 C-26.84124808 52.64268483 -26.84064987 56.39298059 -26.83946228 60.14328003 C-26.83635076 67.24766383 -26.82813978 74.3520323 -26.81811279 81.45640934 C-26.8069461 89.5433614 -26.8014398 97.63031419 -26.79641736 105.71727204 C-26.78595702 122.35522485 -26.76836103 138.99316223 -26.74609375 155.63110352 C-23.03883149 155.86454701 -19.33346255 156.00586698 -15.62109375 156.13110352 C-14.574375 156.19813477 -13.52765625 156.26516602 -12.44921875 156.33422852 C-6.63771222 156.60251362 -6.63771222 156.60251362 -1.75883484 153.8870697 C-0.14881314 151.77703077 -0.14881314 151.77703077 1.0983429 149.56455994 C2.70701181 146.87297992 4.72496697 145.68027494 7.44140625 144.19360352 C8.28058594 143.72051758 9.11976563 143.24743164 9.984375 142.76000977 C17.6213039 138.961262 30.10637179 139.30815678 38.31640625 141.69360352 C43.93735658 144.02828958 49.65069479 147.9850984 52.81964111 153.21525574 C55.89596289 156.26830243 57.46493956 156.21667047 61.65348816 156.25320435 C62.93634453 156.22623978 62.93634453 156.22623978 64.24511719 156.19873047 C65.15278336 156.1994606 66.06044952 156.20019073 66.99562073 156.20094299 C69.99378356 156.19746138 72.99039007 156.15857285 75.98828125 156.11938477 C78.06763866 156.11005869 80.14700707 156.10294161 82.22637939 156.09794617 C87.69783897 156.07886032 93.16863431 156.02974526 98.63983154 155.97442627 C104.22333795 155.92326836 109.80695175 155.90043948 115.390625 155.87524414 C126.34534383 155.82162854 137.2995698 155.73629606 148.25390625 155.63110352 C148.347414 138.15022257 148.41791692 120.66941986 148.46115494 103.18834591 C148.48176616 95.07127959 148.50985907 86.95436882 148.55566406 78.83740234 C148.59557611 71.76132446 148.62134953 64.68535925 148.63026023 57.60917193 C148.63546764 53.86352721 148.64767647 50.11820477 148.67682648 46.3726635 C148.70913072 42.18775101 148.70986287 38.00339619 148.70800781 33.81835938 C148.72957947 31.96258522 148.72957947 31.96258522 148.75158691 30.06932068 C148.71460953 22.36583457 147.93692851 17.73767333 142.69140625 11.88891602 C137.71701335 7.96887813 134.39765643 7.51065092 128.17010498 7.46374512 C126.92245865 7.45225433 125.67481232 7.44076355 124.38935852 7.42892456 C123.00924763 7.42130016 121.6291359 7.41382849 120.24902344 7.40649414 C118.79344941 7.39531435 117.33787791 7.38380089 115.88230896 7.37197876 C111.10516927 7.33547575 106.32800354 7.31021075 101.55078125 7.28735352 C100.73726354 7.28340765 99.92374582 7.27946178 99.08557606 7.27539635 C91.4098448 7.23898476 83.73410422 7.20755132 76.05831528 7.18628693 C66.25054262 7.15871128 56.44349297 7.10792934 46.63602138 7.02581263 C39.73396925 6.96998436 32.83211312 6.94104589 25.92984319 6.93181372 C21.81008953 6.925563 17.6911846 6.9075028 13.57167816 6.86042786 C9.69388692 6.81666188 5.81740562 6.8063023 1.93940926 6.82105637 C0.52043459 6.82072854 -0.8985976 6.80851596 -2.31734657 6.78320694 C-13.05621145 6.60182769 -18.55137836 8.54200052 -24.68359375 17.44360352 Z " fill="#23291E" transform="translate(128.74609375,132.368896484375)"/>
<path d="M0 0 C1.40706848 0.00801481 2.81415097 0.01382191 4.22123718 0.01760864 C8.0124397 0.03425081 11.80264396 0.08221134 15.59346771 0.13666463 C19.56819761 0.18889721 23.54310756 0.21371397 27.51806641 0.24205017 C34.18238179 0.29352483 40.84626743 0.36418361 47.51025391 0.44775391 C55.21858994 0.54430996 62.92683716 0.61628866 70.63555622 0.67396837 C78.85044959 0.7355031 87.06514383 0.81219289 95.27985001 0.89479899 C97.64678945 0.9177465 100.01374033 0.93813913 102.38070679 0.95808601 C106.09090703 0.99028446 109.80085068 1.03281914 113.51084328 1.08348465 C115.52609356 1.10877115 117.54145807 1.12436655 119.55680847 1.13972473 C120.74833023 1.15811401 121.93985199 1.1765033 123.16748047 1.19544983 C124.20717987 1.20747468 125.24687927 1.21949953 126.31808472 1.23188877 C128.76953125 1.50756836 128.76953125 1.50756836 130.76953125 3.50756836 C130.43953125 4.16756836 130.10953125 4.82756836 129.76953125 5.50756836 C129.04231023 5.51087851 128.31508921 5.51418865 127.56583118 5.51759911 C109.87218041 5.59881406 92.17861971 5.69090159 74.4850893 5.79509544 C65.92863567 5.84522049 57.37219161 5.89166344 48.81567383 5.92944336 C41.35794821 5.96238108 33.90029693 6.00222216 26.44265336 6.05035841 C22.49377304 6.07560571 18.54494191 6.09739222 14.59600258 6.11091232 C10.87860595 6.12374875 7.16137818 6.14582016 3.44407463 6.17495155 C1.43046191 6.18833425 -0.58320834 6.19194578 -2.59686279 6.19526672 C-4.39938759 6.21201195 -4.39938759 6.21201195 -6.23832703 6.22909546 C-7.28087489 6.23462622 -8.32342276 6.24015697 -9.39756298 6.24585533 C-12.38551918 6.52189242 -14.55435241 7.1648289 -17.23046875 8.50756836 C-18.33883298 10.39072995 -18.33883298 10.39072995 -19.23046875 12.50756836 C-19.89046875 13.14694336 -20.55046875 13.78631836 -21.23046875 14.44506836 C-24.89180887 18.22082536 -25.48010889 22.06857289 -25.50894165 27.19599915 C-25.52010513 28.33036911 -25.53126862 29.46473907 -25.54277039 30.63348389 C-25.54493057 31.86850647 -25.54709076 33.10352905 -25.54931641 34.37597656 C-25.55936203 35.68368515 -25.56940765 36.99139374 -25.57975769 38.33872986 C-25.60702222 41.91681966 -25.62219652 45.49487016 -25.63518572 49.07303643 C-25.65083182 52.81535354 -25.67761732 56.55759059 -25.70321655 60.29985046 C-25.74997817 67.38284726 -25.78673492 74.46585916 -25.81988943 81.5489313 C-25.85812932 89.61423954 -25.90753458 97.67946732 -25.95787358 105.7447077 C-26.06115451 122.33227011 -26.15042736 138.91987719 -26.23046875 155.50756836 C-22.52032707 155.57226446 -18.81583961 155.5478013 -15.10546875 155.50756836 C-14.05875 155.5269043 -13.01203125 155.54624023 -11.93359375 155.56616211 C-6.10247157 155.55937762 -6.10247157 155.55937762 -1.24320984 152.73228455 C0.36458158 150.62320024 0.36458158 150.62320024 1.6139679 148.42344666 C3.22762465 145.74806764 5.2501962 144.55148351 7.95703125 143.07006836 C8.79621094 142.59698242 9.63539063 142.12389648 10.5 141.63647461 C18.1369289 137.83772684 30.62199679 138.18462163 38.83203125 140.57006836 C45.7301293 143.43522326 51.38914312 148.5502405 55.76953125 154.50756836 C59.06264327 156.15412437 62.72836537 155.68818506 66.35009766 155.71289062 C67.23796463 155.72279022 68.1258316 155.73268982 69.04060364 155.7428894 C71.98407294 155.77455224 74.9275584 155.79928073 77.87109375 155.82397461 C79.90848212 155.84454001 81.94586619 155.86553636 83.98324585 155.88694763 C89.35246295 155.94221109 94.72171882 155.9916015 100.09100342 156.03979492 C105.56721458 156.08997877 111.04336924 156.14568108 116.51953125 156.20092773 C127.26948302 156.30856157 138.01948379 156.40999492 148.76953125 156.50756836 C148.43953125 157.16756836 148.10953125 157.82756836 147.76953125 158.50756836 C148.42953125 159.16756836 149.08953125 159.82756836 149.76953125 160.50756836 C119.73953125 160.50756836 89.70953125 160.50756836 58.76953125 160.50756836 C59.42953125 162.48756836 60.08953125 164.46756836 60.76953125 166.50756836 C61.89341835 175.95606105 60.44514038 184.56258378 54.7109375 192.27709961 C47.46768394 200.61966653 40.16540377 205.62127083 29.03125 206.79663086 C18.6549512 207.11951427 9.71206033 204.2712434 1.76953125 197.50756836 C-5.01947011 190.50764657 -8.33664451 183.51146714 -8.48046875 173.75756836 C-8.41826828 170.21214162 -7.95266135 166.9738034 -7.23046875 163.50756836 C-7.91149658 163.49298584 -8.59252441 163.47840332 -9.29418945 163.46337891 C-12.3776909 163.3889414 -15.46010442 163.29226753 -18.54296875 163.19506836 C-20.15075195 163.16123047 -20.15075195 163.16123047 -21.79101562 163.12670898 C-22.81904297 163.09125977 -23.84707031 163.05581055 -24.90625 163.01928711 C-26.32804565 162.98001099 -26.32804565 162.98001099 -27.77856445 162.93994141 C-30.72704958 162.42000044 -31.44695962 161.87721455 -33.23046875 159.50756836 C-33.61078548 156.99275017 -33.61078548 156.99275017 -33.6181488 153.9303894 C-33.62805344 152.76970444 -33.63795807 151.60901947 -33.64816284 150.41316223 C-33.64366119 149.13833481 -33.63915955 147.86350739 -33.63452148 146.55004883 C-33.64022354 145.19476253 -33.64718716 143.83948105 -33.65531921 142.48420715 C-33.67329331 138.79994472 -33.67207326 135.11591994 -33.66637683 131.4316268 C-33.66328823 128.35298544 -33.6693744 125.27438996 -33.67541558 122.19575512 C-33.68947581 114.92660731 -33.68788973 107.65757695 -33.67651367 100.38842773 C-33.66505639 92.90224599 -33.67906416 85.4164235 -33.70591015 77.93028915 C-33.72811541 71.49614537 -33.73469294 65.06211393 -33.72883373 58.62793458 C-33.72547135 54.7884278 -33.72782983 50.94915076 -33.74508476 47.10967636 C-33.76062687 43.49308751 -33.7565189 39.87702653 -33.73777962 36.26045799 C-33.7323735 34.31201211 -33.74655634 32.36354214 -33.76147461 30.41514587 C-33.68729078 21.53188888 -31.93440421 15.64299906 -27.10546875 8.25756836 C-19.04111821 0.54384175 -10.7825472 -0.20089676 0 0 Z " fill="#283322" transform="translate(128.23046875,132.492431640625)"/>
<path d="M0 0 C4.55844858 -0.20790222 9.1002339 -0.3864209 13.65966797 -0.49438477 C15.20613531 -0.53939461 16.75222496 -0.60063085 18.29736328 -0.67895508 C31.03699992 -1.3081237 31.03699992 -1.3081237 35.64770508 1.7644043 C37.72810753 4.06234261 39.36694603 6.36879562 41 9 C41.97836036 10.32510697 42.96117103 11.64694422 43.94921875 12.96484375 C44.86735328 14.28534209 45.7799945 15.60967447 46.6875 16.9375 C47.7190893 18.42254426 48.75167643 19.90689578 49.78515625 21.390625 C50.5743042 22.52661133 50.5743042 22.52661133 51.37939453 23.68554688 C54.56835277 28.2398289 57.84374462 32.73185987 61.1081543 37.23217773 C62.14173936 38.65844739 63.1551156 40.09949997 64.15185547 41.55175781 C66.0050575 44.12748562 66.0050575 44.12748562 68.60205078 46.58105469 C77.9241662 56.4100983 77.15903361 67.63143825 76.87890625 80.55859375 C76.81962314 82.63091571 76.75400339 84.70295026 76.68664551 86.77502441 C76.58313254 90.30122945 76.53842272 93.82817264 76.48828125 97.35546875 C76.38200442 104.23876559 76.21204189 111.11916847 76 118 C72.9196213 118.12193947 69.83986521 118.19611638 66.7578125 118.26171875 C65.88616455 118.29680542 65.0145166 118.33189209 64.11645508 118.36804199 C57.62382663 118.47186207 57.62382663 118.47186207 54.4152832 116.04492188 C52.875 113.8125 52.875 113.8125 51.47265625 111.33203125 C48.76434067 107.04326626 43.92193888 104.83467656 39.12573242 103.46459961 C28.62544786 101.16965973 17.58673681 101.98862009 8.34765625 107.4921875 C7.57292969 107.98976563 6.79820312 108.48734375 6 109 C4.88431641 109.49886719 4.88431641 109.49886719 3.74609375 110.0078125 C1.64761301 110.94284291 1.64761301 110.94284291 1 114 C0.67 114 0.34 114 0 114 C0 98.49 0 82.98 0 67 C21.12 67 42.24 67 64 67 C64 65.02 64 63.04 64 61 C63.34 61 62.68 61 62 61 C60.3107258 58.74148039 58.73891398 56.47632335 57.1875 54.125 C56.20253038 52.66010514 55.21546453 51.19661809 54.2265625 49.734375 C53.70481445 48.96287109 53.18306641 48.19136719 52.64550781 47.39648438 C49.33087701 42.56912295 45.86626907 37.84906154 42.41674805 33.11767578 C41.89894775 32.40595215 41.38114746 31.69422852 40.84765625 30.9609375 C40.39398682 30.34009277 39.94031738 29.71924805 39.47290039 29.07958984 C38 27 38 27 36.3112793 23.80273438 C34.20393378 20.6576102 34.20393378 20.6576102 30.42480469 20.22705078 C29.00770788 20.18629682 27.58944559 20.17748378 26.171875 20.1953125 C25.42286926 20.18160614 24.67386353 20.16789978 23.90216064 20.15377808 C21.51749576 20.11648367 19.13491504 20.1201917 16.75 20.125 C15.13017579 20.10687247 13.51037916 20.08606958 11.890625 20.0625 C7.92586705 20.00562847 3.96655687 20.00424685 0 20 C0 13.4 0 6.8 0 0 Z " fill="#6D9F54" transform="translate(284,170)"/>
<path d="M0 0 C2.66781411 5.18088262 2.31829555 10.27634931 2.24609375 16.01953125 C2.2296582 17.83855957 2.2296582 17.83855957 2.21289062 19.69433594 C1.77713682 37.88463657 -4.35329673 56.11576701 -17.27734375 69.4140625 C-28.42457245 79.55761352 -41.50341291 83.07220268 -56.24609375 82.54296875 C-59.31640625 82.26953125 -59.31640625 82.26953125 -60.31640625 81.26953125 C-60.27848042 79.64163773 -60.16127979 78.01524383 -60.00390625 76.39453125 C-59.92527344 75.51023437 -59.84664062 74.6259375 -59.765625 73.71484375 C-59.31640625 71.26953125 -59.31640625 71.26953125 -57.31640625 68.26953125 C-54.41015625 67.8984375 -54.41015625 67.8984375 -50.81640625 67.83203125 C-41.28757808 67.31564281 -34.11441227 64.94827891 -27.12890625 58.30078125 C-16.06719472 45.90403557 -14.58818776 30.11659825 -13.31640625 14.26953125 C-29.64936176 16.08731866 -44.84431709 21.0573073 -56.31640625 33.26953125 C-56.97640625 33.26953125 -57.63640625 33.26953125 -58.31640625 33.26953125 C-58.59355469 33.84703125 -58.87070313 34.42453125 -59.15625 35.01953125 C-60.64371102 37.90430414 -62.4123397 40.56068237 -64.1953125 43.26953125 C-66.19365093 46.8345113 -66.43831586 49.9796777 -66.37890625 54.01953125 C-66.36537109 55.21835938 -66.36537109 55.21835938 -66.3515625 56.44140625 C-66.33996094 57.0446875 -66.32835937 57.64796875 -66.31640625 58.26953125 C-65.6615625 57.36332031 -65.00671875 56.45710938 -64.33203125 55.5234375 C-56.8492065 45.43680603 -48.99616515 37.53592323 -37.31640625 32.26953125 C-34.44140625 32.08203125 -34.44140625 32.08203125 -32.31640625 32.26953125 C-32.46484375 34.5546875 -32.46484375 34.5546875 -33.31640625 37.26953125 C-35.79296875 39.078125 -35.79296875 39.078125 -38.94140625 40.70703125 C-53.88849344 48.98351754 -60.87713884 61.20603695 -67.31005859 76.64111328 C-67.6602002 77.4711084 -68.0103418 78.30110352 -68.37109375 79.15625 C-68.67515137 79.90092529 -68.97920898 80.64560059 -69.29248047 81.4128418 C-70.31640625 83.26953125 -70.31640625 83.26953125 -73.31640625 85.26953125 C-76.00390625 84.89453125 -76.00390625 84.89453125 -78.31640625 84.26953125 C-78.1978125 83.64046875 -78.07921875 83.01140625 -77.95703125 82.36328125 C-77.08389853 76.56568001 -77.28319739 73.0279475 -80.30859375 67.9609375 C-83.68704757 62.29089679 -83.03988131 54.65606968 -82.31640625 48.26953125 C-80.23343895 40.08131498 -76.47748232 32.91748876 -71.31640625 26.26953125 C-70.754375 25.52058594 -70.19234375 24.77164063 -69.61328125 24 C-58.46373609 10.25045586 -40.89950274 4.51308306 -24.31640625 0.26953125 C-23.42953125 0.04136719 -22.54265625 -0.18679687 -21.62890625 -0.421875 C-5.50954063 -4.11589629 -5.50954063 -4.11589629 0 0 Z " fill="#F6F8E2" transform="translate(226.31640625,169.73046875)"/>
<path d="M0 0 C7.94410861 4.4796818 13.06846758 10.57452604 15.5625 19.4375 C16.58362078 27.48026033 15.55248709 34.12101984 10.93359375 40.7890625 C6.3328247 46.49587502 1.80038761 49.946177 -5.4375 51.4375 C-15.63948847 52.42553041 -23.49998736 51.69060031 -31.6875 45.4375 C-37.78661011 39.71057968 -39.60441954 32.48337992 -39.9375 24.3125 C-39.62852284 16.35118862 -36.68282226 9.8280692 -31.24609375 4.01171875 C-22.06488129 -3.97970376 -10.95400739 -5.04943091 0 0 Z " fill="#666C59" transform="translate(166.4375,280.5625)"/>
<path d="M0 0 C5.65122026 4.39395337 10.72581136 9.25737 12.703125 16.32421875 C13.95492155 26.39021162 12.01648821 34.10316158 6.640625 42.57421875 C0.65389671 48.9045961 -6.36196481 51.70851338 -14.984375 51.94921875 C-20.99967544 51.6868882 -25.41950148 50.87457418 -30.296875 47.32421875 C-31.369375 46.58171875 -32.441875 45.83921875 -33.546875 45.07421875 C-39.66781385 38.9532799 -41.43374952 32.0412155 -41.609375 23.57421875 C-41.51524911 15.9970846 -40.45664153 11.68528314 -35.2734375 6.171875 C-25.92065936 -2.65421086 -12.01821384 -7.44606727 0 0 Z " fill="#656C59" transform="translate(325.296875,280.67578125)"/>
<path d="M0 0 C4.91126203 -0.07424001 9.82219634 -0.12864411 14.73388672 -0.16479492 C16.40419201 -0.17986754 18.07445781 -0.2003292 19.74462891 -0.22631836 C22.14756013 -0.26276973 24.54996744 -0.27974131 26.953125 -0.29296875 C27.69806213 -0.30845261 28.44299927 -0.32393646 29.21051025 -0.33988953 C33.46881629 -0.34126712 35.92578536 -0.02227148 39 3 C39.79277344 3.72703125 40.58554687 4.4540625 41.40234375 5.203125 C44.47975967 8.51655327 47.00247626 12.03144403 49.5625 15.75 C50.62366328 17.2708575 51.68486222 18.79169012 52.74609375 20.3125 C53.28476074 21.08851563 53.82342773 21.86453125 54.37841797 22.6640625 C56.94922539 26.36738761 59.53265743 30.06172139 62.125 33.75 C62.6187915 34.45261963 63.11258301 35.15523926 63.62133789 35.87915039 C67.54598308 41.42984022 71.64201121 46.82475759 75.84375 52.16796875 C76.91109375 53.56982422 76.91109375 53.56982422 78 55 C78.69477951 55.90783737 79.38955902 56.81567474 80.10539246 57.75102234 C82.27657025 61.47427794 82.49132937 63.54153839 82.4699707 67.81567383 C82.4732563 68.79481247 82.4732563 68.79481247 82.47660828 69.79373169 C82.47890335 71.9320291 82.45276637 74.06891971 82.42578125 76.20703125 C82.42085401 77.69821231 82.4175573 79.18939958 82.41581726 80.68058777 C82.40819895 83.79499275 82.3876977 86.90893456 82.35668945 90.02319336 C82.31694367 94.0227024 82.29905102 98.02191182 82.28938007 102.02159595 C82.27943294 105.83344853 82.25953963 109.64522745 82.23828125 113.45703125 C82.23318763 114.55222045 82.23318763 114.55222045 82.2279911 115.66953468 C82.21646798 117.72354652 82.19795981 119.77736427 82.17700195 121.83129883 C82.16715775 123.00122879 82.15731354 124.17115875 82.14717102 125.37654114 C82 128 82 128 81 129 C79.36527118 129.08700342 77.72685945 129.10701063 76.08984375 129.09765625 C75.10048828 129.09443359 74.11113281 129.09121094 73.09179688 129.08789062 C72.05087891 129.07951172 71.00996094 129.07113281 69.9375 129.0625 C68.89271484 129.05798828 67.84792969 129.05347656 66.77148438 129.04882812 C64.1809334 129.03699913 61.59049441 129.02051689 59 129 C59.33 129.66 59.66 130.32 60 131 C60.93350473 143.10495483 59.84225468 152.84317583 51.8125 162.375 C44.09597834 170.33147897 36.08750071 173.29124993 25.25 174.375 C13.8052478 173.94183209 5.7121282 169.14734989 -2 161 C-1.67 160.01 -1.34 159.02 -1 158 C0.65 159.98 2.3 161.96 4 164 C4.41800627 159.97110373 4.41800627 159.97110373 1.9375 157.4375 C1.298125 156.633125 0.65875 155.82875 0 155 C0.33 154.01 0.66 153.02 1 152 C1.3403125 152.51949219 1.680625 153.03898438 2.03125 153.57421875 C6.29133723 159.70375915 10.86715011 163.62238337 18 166 C26.73190356 166.84536811 34.0699178 166.70515219 41.6875 161.91015625 C47.88962242 156.78711932 51.42175925 149.85113553 52.37109375 141.88671875 C52.55427812 133.06154231 51.2038479 127.4157354 45.0625 120.96484375 C38.92130935 115.30052586 33.88362638 113.72657647 25.6875 113.375 C24.94693359 113.33632813 24.20636719 113.29765625 23.44335938 113.2578125 C21.62928691 113.16418295 19.81467884 113.08103149 18 113 C18 112.67 18 112.34 18 112 C20.475 111.505 20.475 111.505 23 111 C23 110.34 23 109.68 23 109 C31.16586745 107.54688626 37.65736341 107.89610946 45 112 C48.99081978 115.23685383 52.15400049 118.73100074 55 123 C57.31753588 123.50843062 57.31753588 123.50843062 60.0078125 123.51171875 C61.48701172 123.56489258 61.48701172 123.56489258 62.99609375 123.61914062 C64.02863281 123.64169922 65.06117188 123.66425781 66.125 123.6875 C67.16527344 123.72166016 68.20554687 123.75582031 69.27734375 123.79101562 C71.85145507 123.87367058 74.42521829 123.94276155 77 124 C76.96191367 116.26305712 76.90250949 108.52652506 76.81609726 100.78997517 C76.77663469 97.19728618 76.74444066 93.60484182 76.72900391 90.01196289 C76.7138286 86.54275334 76.67936945 83.07421637 76.63169098 79.60530663 C76.60969433 77.64178569 76.60752701 75.678075 76.60565186 73.71443176 C76.58593323 72.5135643 76.5662146 71.31269684 76.54589844 70.07543945 C76.53701599 69.02064896 76.52813354 67.96585846 76.51898193 66.87910461 C75.73119437 62.50877366 73.20791366 60.16098041 70.08984375 57.1640625 C67.18971016 54.16093351 64.93041269 50.80478147 62.5625 47.375 C61.49564405 45.84706074 60.42790531 44.31973756 59.359375 42.79296875 C58.80830078 42.0045459 58.25722656 41.21612305 57.68945312 40.40380859 C54.92863577 36.47562829 52.12414409 32.57939863 49.3125 28.6875 C48.77077148 27.93694336 48.22904297 27.18638672 47.67089844 26.41308594 C43.75940516 21.01014288 39.76912065 15.67332596 35.70703125 10.3828125 C34.21174886 8.29557621 33.11075089 6.3016434 32 4 C30.65252686 3.97812622 30.65252686 3.97812622 29.27783203 3.95581055 C25.9489341 3.89480303 22.62087117 3.82066372 19.29248047 3.73754883 C17.85118658 3.70426822 16.40976137 3.67624596 14.96826172 3.65356445 C12.89754203 3.6200738 10.82802907 3.567767 8.7578125 3.51171875 C7.5114502 3.48553467 6.26508789 3.45935059 4.98095703 3.43237305 C3.99724121 3.28968994 3.01352539 3.14700684 2 3 C1.34 2.01 0.68 1.02 0 0 Z " fill="#273121" transform="translate(285,165)"/>
<path d="M0 0 C0.71293816 15.89588043 -2.07964961 30.71003536 -12.25 43.375 C-16.84899614 48.28127873 -23.23116578 52.91895207 -30 54 C-32.4157906 54.06831987 -34.83334713 54.08487642 -37.25 54.0625 C-38.51328125 54.05347656 -39.7765625 54.04445312 -41.078125 54.03515625 C-42.04234375 54.02355469 -43.0065625 54.01195312 -44 54 C-44.66 55.98 -45.32 57.96 -46 60 C-46.33 58.68 -46.66 57.36 -47 56 C-47.66 56 -48.32 56 -49 56 C-51.18326108 60.27113698 -53.31326082 64.50202887 -55 69 C-56.37769795 65.9471466 -55.90214343 64.70836168 -54.8125 61.4609375 C-54.22371349 60.09223919 -53.61862711 58.73047228 -53 57.375 C-52.68184326 56.6636792 -52.36368652 55.9523584 -52.03588867 55.21948242 C-49.31828402 49.32655018 -46.03538466 44.08891166 -42 39 C-41.39285156 38.18273437 -40.78570312 37.36546875 -40.16015625 36.5234375 C-37.71777927 33.67031719 -35.12904723 31.56362445 -32.125 29.3125 C-31.11695313 28.54550781 -30.10890625 27.77851563 -29.0703125 26.98828125 C-26.071972 25.04660782 -23.42554697 23.9560855 -20 23 C-19.67 21.35 -19.34 19.7 -19 18 C-26.43588383 19.88591257 -31.95797198 23.3484387 -38 28 C-38.8146875 28.59425781 -39.629375 29.18851563 -40.46875 29.80078125 C-43.55893984 32.48562212 -45.83689123 35.46268117 -48.25 38.75 C-49.80969622 40.85513912 -51.3878012 42.93399709 -53 45 C-53.33 45 -53.66 45 -54 45 C-54.52960613 35.42785958 -52.9510115 28.62626438 -46.90625 21.0703125 C-34.93786148 8.07185776 -17.87662986 -0.87917852 0 0 Z " fill="#66994C" transform="translate(213,184)"/>
<path d="M0 0 C27.54440701 -1.98413101 27.54440701 -1.98413101 33.48486328 1.42675781 C37.36406229 5.1769502 39.63225026 9.75961781 41.84814453 14.62548828 C43.73955001 18.52455774 46.26391881 21.96303383 48.75 25.5 C53 31.79380242 53 31.79380242 53 33 C35.51 33 18.02 33 0 33 C0 22.11 0 11.22 0 0 Z " fill="#6EA254" transform="translate(284,197)"/>
<path d="M0 0 C1.40706848 0.00801481 2.81415097 0.01382191 4.22123718 0.01760864 C8.0124397 0.03425081 11.80264396 0.08221134 15.59346771 0.13666463 C19.56819761 0.18889721 23.54310756 0.21371397 27.51806641 0.24205017 C34.18238179 0.29352483 40.84626743 0.36418361 47.51025391 0.44775391 C55.21858994 0.54430996 62.92683716 0.61628866 70.63555622 0.67396837 C78.85044959 0.7355031 87.06514383 0.81219289 95.27985001 0.89479899 C97.64678945 0.9177465 100.01374033 0.93813913 102.38070679 0.95808601 C106.09090703 0.99028446 109.80085068 1.03281914 113.51084328 1.08348465 C115.52609356 1.10877115 117.54145807 1.12436655 119.55680847 1.13972473 C120.74833023 1.15811401 121.93985199 1.1765033 123.16748047 1.19544983 C124.20717987 1.20747468 125.24687927 1.21949953 126.31808472 1.23188877 C128.76953125 1.50756836 128.76953125 1.50756836 130.76953125 3.50756836 C130.43953125 4.16756836 130.10953125 4.82756836 129.76953125 5.50756836 C129.04231023 5.51087851 128.31508921 5.51418865 127.56583118 5.51759911 C109.87218041 5.59881406 92.17861971 5.69090159 74.4850893 5.79509544 C65.92863567 5.84522049 57.37219161 5.89166344 48.81567383 5.92944336 C41.35794821 5.96238108 33.90029693 6.00222216 26.44265336 6.05035841 C22.49377304 6.07560571 18.54494191 6.09739222 14.59600258 6.11091232 C10.87860595 6.12374875 7.16137818 6.14582016 3.44407463 6.17495155 C1.43046191 6.18833425 -0.58320834 6.19194578 -2.59686279 6.19526672 C-4.39938759 6.21201195 -4.39938759 6.21201195 -6.23832703 6.22909546 C-7.28087489 6.23462622 -8.32342276 6.24015697 -9.39756298 6.24585533 C-12.38551918 6.52189242 -14.55435241 7.1648289 -17.23046875 8.50756836 C-18.33883298 10.39072995 -18.33883298 10.39072995 -19.23046875 12.50756836 C-19.89046875 13.14694336 -20.55046875 13.78631836 -21.23046875 14.44506836 C-24.89180887 18.22082536 -25.48010889 22.06857289 -25.50894165 27.19599915 C-25.52010513 28.33036911 -25.53126862 29.46473907 -25.54277039 30.63348389 C-25.54493057 31.86850647 -25.54709076 33.10352905 -25.54931641 34.37597656 C-25.55936203 35.68368515 -25.56940765 36.99139374 -25.57975769 38.33872986 C-25.60702222 41.91681966 -25.62219652 45.49487016 -25.63518572 49.07303643 C-25.65083182 52.81535354 -25.67761732 56.55759059 -25.70321655 60.29985046 C-25.74997817 67.38284726 -25.78673492 74.46585916 -25.81988943 81.5489313 C-25.85812932 89.61423954 -25.90753458 97.67946732 -25.95787358 105.7447077 C-26.06115451 122.33227011 -26.15042736 138.91987719 -26.23046875 155.50756836 C-26.56046875 155.50756836 -26.89046875 155.50756836 -27.23046875 155.50756836 C-27.2328571 154.83427301 -27.23524546 154.16097767 -27.23770618 153.46727943 C-27.29678425 137.10152765 -27.37228774 120.73594308 -27.46618366 104.37035561 C-27.51119251 96.45614577 -27.55059527 88.54198145 -27.5769043 80.62768555 C-27.59984335 73.73139216 -27.63319508 66.8352422 -27.67917031 59.93906248 C-27.70315816 56.28591794 -27.7218503 52.63291593 -27.72808266 48.97969437 C-27.73522666 44.9062592 -27.76561256 40.83332162 -27.7980957 36.76000977 C-27.79666061 35.54225357 -27.79522552 34.32449738 -27.79374695 33.06983948 C-27.8062851 31.96483597 -27.81882324 30.85983246 -27.83174133 29.72134399 C-27.8363503 28.75714853 -27.84095926 27.79295307 -27.84570789 26.79953957 C-27.97267898 26.04318907 -28.09965006 25.28683857 -28.23046875 24.50756836 C-29.22046875 23.84756836 -30.21046875 23.18756836 -31.23046875 22.50756836 C-31.56046875 67.71756836 -31.89046875 112.92756836 -32.23046875 159.50756836 C-32.56046875 159.50756836 -32.89046875 159.50756836 -33.23046875 159.50756836 C-33.32403348 141.53969794 -33.3945073 123.57189101 -33.43771744 105.60382938 C-33.4583166 97.26038009 -33.48638636 88.91708242 -33.53222656 80.57373047 C-33.57217564 73.29913444 -33.59792079 66.02464826 -33.60682273 58.74994558 C-33.61202389 54.90028271 -33.62419266 51.05093403 -33.65338898 47.20137215 C-33.68068605 43.57257797 -33.68888524 39.94422524 -33.68289948 36.31533813 C-33.6845121 34.35965828 -33.70595978 32.4040257 -33.72814941 30.44847107 C-33.68668814 21.53634742 -31.94864508 15.66477922 -27.10546875 8.25756836 C-19.04111821 0.54384175 -10.7825472 -0.20089676 0 0 Z " fill="#2A3523" transform="translate(128.23046875,132.492431640625)"/>
<path d="M0 0 C29.2586848 -2.52125546 29.2586848 -2.52125546 36.52880859 1.34472656 C40.22455724 4.8359791 42.14474384 9.15807588 44.02978516 13.81494141 C45.59374376 17.33719343 47.86996762 20.2554211 50.1875 23.3125 C51.00402691 24.44726304 51.81789229 25.58394659 52.62890625 26.72265625 C54.20421227 28.90917841 55.79627412 31.08207777 57.40234375 33.24609375 C58.13582031 34.23738281 58.86929688 35.22867188 59.625 36.25 C60.60339844 37.55710937 60.60339844 37.55710937 61.6015625 38.890625 C63 41 63 41 63 43 C47.16 43 31.32 43 15 43 C15 42.67 15 42.34 15 42 C8.07 41.505 8.07 41.505 1 41 C0.505 39.515 0.505 39.515 0 38 C17.16 37.67 34.32 37.34 52 37 C48.7 32.05 45.4 27.1 42 22 C41.15953125 20.30101562 40.3190625 18.60203125 39.453125 16.8515625 C37.0466314 12.01184861 34.7290746 7.85999123 30 5 C20.25791629 2.64813154 9.91932272 3.31131559 0 4 C0 2.68 0 1.36 0 0 Z " fill="#2F3B27" transform="translate(284,192)"/>
<path d="M0 0 C3.17687435 3.17687435 3.20474745 6.18989809 3.3125 10.5 C3.15812772 21.17741588 -0.37428517 28.29855403 -7.77734375 35.90625 C-14.58405832 42.31819905 -22.19419986 45.08542772 -31.5 45.375 C-41.73001362 45.02919672 -50.86085015 41.49285652 -57.9296875 33.9375 C-60.93652934 30.16855539 -60.93652934 30.16855539 -62 28 C-61.505 26.515 -61.505 26.515 -61 25 C-60.67 25.33 -60.34 25.66 -60 26 C-59.67 24.35 -59.34 22.7 -59 21 C-58.34 21 -57.68 21 -57 21 C-56.505 22.19625 -56.01 23.3925 -55.5 24.625 C-52.6041424 30.41671521 -48.10656523 33.75052748 -42.1640625 36.140625 C-34.05198432 38.34390549 -24.92149722 38.02720663 -17.2578125 34.4609375 C-11.90208847 30.99546901 -8.0796158 26.42913554 -5.5 20.625 C-4.5839074 13.98332864 -4.52071648 7.55618456 -6 1 C-5.34 1 -4.68 1 -4 1 C-1.53745274 7.61809577 -1.81064528 14.00439516 -2 21 C0.71486934 17.02389214 0.22440753 12.86098023 0.125 8.25 C0.11597656 7.45722656 0.10695312 6.66445313 0.09765625 5.84765625 C0.07417012 3.89830719 0.03830137 1.94911425 0 0 Z " fill="#242D1E" transform="translate(186,294)"/>
<path d="M0 0 C4.86446596 0.56128453 8.3181206 4.08603479 11.44038105 7.63914204 C14.28376743 10.12016151 18.27116651 9.43839945 21.87768555 9.43237305 C22.78520569 9.4425647 23.69272583 9.45275635 24.62774658 9.46325684 C27.63079936 9.49347833 30.63353365 9.50266678 33.63671875 9.51171875 C35.7175249 9.52855864 37.79832084 9.54670794 39.87910461 9.56611633 C45.35845752 9.6136973 50.83776902 9.64345431 56.31726074 9.66955566 C61.90755392 9.69932035 67.49770429 9.74586469 73.08789062 9.79101562 C84.05851918 9.87714087 95.02917705 9.94444513 106 10 C105.67 10.66 105.34 11.32 105 12 C105.99 12.99 105.99 12.99 107 14 C76.97 14.33 46.94 14.66 16 15 C16 20.61 16 26.22 16 32 C15.01 34.475 15.01 34.475 14 37 C13.34 36.67 12.68 36.34 12 36 C12.01160156 35.14277344 12.02320313 34.28554688 12.03515625 33.40234375 C12.0818041 27.49139448 12.08249916 21.81843296 11 16 C10.01 15.67 9.02 15.34 8 15 C7.731875 14.29875 7.46375 13.5975 7.1875 12.875 C5.76962824 9.44225784 3.77196953 7.32347018 1.2421875 4.6484375 C0 3 0 3 0 0 Z " fill="#323D28" transform="translate(171,279)"/>
<path d="M0 0 C-2.52434844 1.30109589 -4.95512605 2.36228919 -7.625 3.375 C-11.21746226 5.10470405 -11.62435997 5.5079907 -13 9 C-13.66 9.639375 -14.32 10.27875 -15 10.9375 C-18.66134012 14.713257 -19.24964014 18.56100453 -19.2784729 23.68843079 C-19.28963638 24.82280075 -19.30079987 25.95717072 -19.31230164 27.12591553 C-19.31446182 28.36093811 -19.31662201 29.59596069 -19.31884766 30.8684082 C-19.32889328 32.17611679 -19.3389389 33.48382538 -19.34928894 34.8311615 C-19.37655347 38.4092513 -19.39172777 41.9873018 -19.40471697 45.56546807 C-19.42036307 49.30778518 -19.44714857 53.05002223 -19.4727478 56.7922821 C-19.51950942 63.8752789 -19.55626617 70.95829081 -19.58942068 78.04136294 C-19.62766057 86.10667118 -19.67706583 94.17189896 -19.72740483 102.23713934 C-19.83068576 118.82470175 -19.91995861 135.41230883 -20 152 C-20.33 152 -20.66 152 -21 152 C-21.00238835 151.32670465 -21.00477671 150.65340931 -21.00723743 149.95971107 C-21.0663155 133.59395929 -21.14181899 117.22837472 -21.23571491 100.86278725 C-21.28072376 92.94857741 -21.32012652 85.03441309 -21.34643555 77.12011719 C-21.3693746 70.2238238 -21.40272633 63.32767384 -21.44870156 56.43149412 C-21.47268941 52.77834958 -21.49138155 49.12534757 -21.49761391 45.47212601 C-21.50475791 41.39869084 -21.53514381 37.32575326 -21.56762695 33.25244141 C-21.56619186 32.03468521 -21.56475677 30.81692902 -21.5632782 29.56227112 C-21.57581635 28.45726761 -21.58835449 27.3522641 -21.60127258 26.21377563 C-21.60588155 25.24958017 -21.61049051 24.28538471 -21.61523914 23.29197121 C-21.74221023 22.53562071 -21.86918131 21.77927021 -22 21 C-22.99 20.34 -23.98 19.68 -25 19 C-25.33 64.21 -25.66 109.42 -26 156 C-26.33 156 -26.66 156 -27 156 C-27.09356473 138.03212958 -27.16403855 120.06432265 -27.20724869 102.09626102 C-27.22784785 93.75281173 -27.25591761 85.40951406 -27.30175781 77.06616211 C-27.34170689 69.79156608 -27.36745204 62.5170799 -27.37635398 55.24237722 C-27.38155514 51.39271435 -27.39372391 47.54336567 -27.42292023 43.69380379 C-27.4502173 40.06500961 -27.45841649 36.43665688 -27.45243073 32.80776978 C-27.45404335 30.85208992 -27.47549103 28.89645734 -27.49768066 26.94090271 C-27.45059304 16.81939311 -25.23332841 9.23332841 -18 2 C-12.21405729 -3.14812225 -7.11481716 -1.90414636 0 0 Z " fill="#353D2F" transform="translate(122,136)"/>
<path d="M0 0 C1.21116989 -0.00571014 2.42233978 -0.01142029 3.67021179 -0.01730347 C5.0145873 -0.01854883 6.35896292 -0.01967392 7.70333862 -0.02069092 C9.11773305 -0.02531984 10.53212622 -0.0303446 11.94651794 -0.03573608 C15.7918628 -0.0488588 19.6371902 -0.0553053 23.48255396 -0.05974674 C25.88690964 -0.06267891 28.29126057 -0.06678409 30.69561386 -0.07125092 C38.22358526 -0.08492823 45.75154577 -0.09459259 53.27952874 -0.09845281 C61.95887511 -0.10292814 70.63806358 -0.1204506 79.31736195 -0.1494534 C86.03173585 -0.17110803 92.74606546 -0.18115917 99.4604739 -0.18249393 C103.46762912 -0.18353965 107.47463596 -0.1893973 111.4817543 -0.20731354 C115.25582785 -0.22385877 119.02964253 -0.22591868 122.80373955 -0.21717453 C124.83807643 -0.21604361 126.87240497 -0.22971278 128.9066925 -0.243927 C136.75163411 -0.20835166 144.38136489 -0.09221768 150.60519409 5.18341064 C151.15046753 5.89110596 151.69574097 6.59880127 152.25753784 7.32794189 C153.11025269 8.40108643 153.11025269 8.40108643 153.98019409 9.49591064 C154.38109253 10.03860596 154.78199097 10.58130127 155.19503784 11.14044189 C154.86503784 11.80044189 154.53503784 12.46044189 154.19503784 13.14044189 C153.75933472 12.58614502 153.32363159 12.03184814 152.87472534 11.46075439 C151.98140503 10.37407471 151.98140503 10.37407471 151.07003784 9.26544189 C150.48995972 8.54614502 149.90988159 7.82684814 149.31222534 7.08575439 C145.14943457 3.26090236 140.30840412 2.89046771 134.84381104 2.89320374 C133.58763474 2.88900925 132.33145844 2.88481476 131.03721619 2.88049316 C129.65801924 2.88597566 128.27882307 2.89165861 126.89962769 2.89752197 C125.43727026 2.89644824 123.97491324 2.89450821 122.51255798 2.89176941 C118.55198495 2.88693332 114.59152506 2.89456075 110.63096571 2.90472245 C106.48351138 2.91352128 102.3360604 2.91174517 98.18859863 2.91136169 C91.22653312 2.91229738 84.26451128 2.9209694 77.30245972 2.93463135 C69.25331537 2.95036817 61.20421879 2.95562896 53.15506017 2.95489579 C44.58256916 2.95422042 36.01009656 2.96115988 27.4376111 2.9703424 C24.96799302 2.97247356 22.49837792 2.97318355 20.028759 2.97358131 C16.14966268 2.97458572 12.27060645 2.98069033 8.39152336 2.99074745 C6.96770028 2.9936683 5.54387258 2.99489866 4.12004662 2.99431992 C2.17745919 2.9938291 0.23487355 3.00010393 -1.70770264 3.00672913 C-2.79499979 3.00840497 -3.88229694 3.01008081 -5.0025425 3.01180744 C-7.44327488 3.12384001 -9.47753462 3.43363585 -11.80496216 4.14044189 C-8.22444839 0.21892681 -5.15958538 0.0145503 0 0 Z " fill="#1C1918" transform="translate(121.80496215820313,137.85955810546875)"/>
<path d="M0 0 C3.96 0.33 7.92 0.66 12 1 C12 1.33 12 1.66 12 2 C9.98177083 2.42317708 7.96354167 2.84635417 5.9453125 3.26953125 C3.62953451 3.92308838 3.62953451 3.92308838 2 7 C1.7497843 10.08365871 1.7497843 10.08365871 2 13 C2.33 13.33 2.66 13.66 3 14 C2.95875 12.72125 2.9175 11.4425 2.875 10.125 C2.8046875 7.9453125 2.8046875 7.9453125 3 6 C5 4 5 4 8.4375 3.625 C12 4 12 4 13.875 5.6875 C15.06820046 8.14018982 15.62571253 10.30513023 16 13 C16.66 11.35 17.32 9.7 18 8 C18.33 8 18.66 8 19 8 C19.21177017 12.4471735 18.85415258 15.92086433 17 20 C12.8916882 22.60548779 8.72136148 22.82501299 4 22 C0.92938032 20.28631391 -1.40450726 18.19098548 -3 15 C-3.203125 12.79296875 -3.203125 12.79296875 -3.25 10.1875 C-3.28867188 8.90939453 -3.28867188 8.90939453 -3.328125 7.60546875 C-3 5 -3 5 0 0 Z " fill="#2C3625" transform="translate(146,295)"/>
<path d="M0 0 C5.89986499 3.36292304 11.05107602 7.51468923 14.953125 13.11328125 C14.623125 13.77328125 14.293125 14.43328125 13.953125 15.11328125 C13.58960938 14.64277344 13.22609375 14.17226563 12.8515625 13.6875 C9.58448632 9.64135181 6.88729919 7.11044699 1.953125 5.11328125 C4.56148778 9.75037064 7.72315074 13.90072583 10.953125 18.11328125 C10.623125 18.77328125 10.293125 19.43328125 9.953125 20.11328125 C9.58703125 19.53320312 9.2209375 18.953125 8.84375 18.35546875 C4.10516656 11.51836979 -1.08262366 7.63736571 -9.046875 5.11328125 C-16.99017275 4.00103419 -23.67569439 5.1148349 -31.046875 8.11328125 C-29.671875 6.61328125 -29.671875 6.61328125 -28.046875 5.11328125 C-27.386875 5.11328125 -26.726875 5.11328125 -26.046875 5.11328125 C-26.046875 4.12328125 -26.046875 3.13328125 -26.046875 2.11328125 C-29.48480839 2.2945794 -29.48480839 2.2945794 -33.046875 3.11328125 C-34.12610477 4.93463838 -34.12610477 4.93463838 -35.046875 7.11328125 C-37.98245508 11.25203034 -40.85846578 14.62729535 -45.94921875 15.7578125 C-49.18318118 15.89912172 -52.31646102 15.81421609 -55.546875 15.61328125 C-56.65546875 15.5771875 -57.7640625 15.54109375 -58.90625 15.50390625 C-61.62344534 15.41020986 -64.33329441 15.27921045 -67.046875 15.11328125 C-67.046875 14.78328125 -67.046875 14.45328125 -67.046875 14.11328125 C-66.38155762 14.12488281 -65.71624023 14.13648438 -65.03076172 14.1484375 C-61.99325378 14.17805624 -58.95932258 14.14621743 -55.921875 14.11328125 C-54.87515625 14.13261719 -53.8284375 14.15195312 -52.75 14.171875 C-46.96220917 14.18207222 -46.96220917 14.18207222 -42.14819336 11.38647461 C-40.60681802 9.28910564 -40.60681802 9.28910564 -39.29101562 7.07763672 C-37.60424094 4.4144128 -35.59716016 3.17413499 -32.859375 1.67578125 C-32.02019531 1.20269531 -31.18101562 0.72960937 -30.31640625 0.2421875 C-22.30010733 -3.74526584 -8.32841319 -3.45924249 0 0 Z " fill="#262D20" transform="translate(169.046875,273.88671875)"/>
<path d="M0 0 C0.763125 0.061875 1.52625 0.12375 2.3125 0.1875 C2.3125 1.1775 2.3125 2.1675 2.3125 3.1875 C1.02044169 4.24028825 -0.32384717 5.22925747 -1.6875 6.1875 C-6.99488632 10.81445218 -10.46897414 16.53192243 -12.6875 23.1875 C-12.75721462 24.71860737 -12.77196529 26.25261997 -12.75 27.78515625 C-12.74226563 28.66880859 -12.73453125 29.55246094 -12.7265625 30.46289062 C-12.71367188 31.38263672 -12.70078125 32.30238281 -12.6875 33.25 C-12.66204068 35.07416005 -12.64099066 36.89838862 -12.625 38.72265625 C-12.61339844 39.530979 -12.60179687 40.33930176 -12.58984375 41.17211914 C-12.6875 43.1875 -12.6875 43.1875 -13.6875 45.1875 C-15.0075 45.1875 -16.3275 45.1875 -17.6875 45.1875 C-21.209517 36.69692331 -21.48364025 29.16820125 -19.6875 20.1875 C-31.0725 19.6925 -31.0725 19.6925 -42.6875 19.1875 C-42.6875 18.8575 -42.6875 18.5275 -42.6875 18.1875 C-34.7675 18.1875 -26.8475 18.1875 -18.6875 18.1875 C-18.3575 16.5375 -18.0275 14.8875 -17.6875 13.1875 C-16.05566893 12.13160931 -14.37957001 11.1438874 -12.6875 10.1875 C-9.68874784 7.43864385 -6.87197701 4.4979214 -4.14453125 1.48046875 C-2.6875 0.1875 -2.6875 0.1875 0 0 Z " fill="#333D2B" transform="translate(140.6875,275.8125)"/>
<path d="M0 0 C2.375 2.125 2.375 2.125 4 4 C3.67 4.99 3.34 5.98 3 7 C2.67 6.67 2.34 6.34 2 6 C1.80664062 6.56589844 1.61328125 7.13179688 1.4140625 7.71484375 C1.15367187 8.44832031 0.89328125 9.18179687 0.625 9.9375 C0.24214844 11.03384766 0.24214844 11.03384766 -0.1484375 12.15234375 C-1 14 -1 14 -3 15 C-8.42307692 15.46153846 -8.42307692 15.46153846 -10.875 13.5 C-11.24625 13.005 -11.6175 12.51 -12 12 C-12 12.33 -12 12.66 -12 13 C-9.73699462 14.79479737 -7.40484386 16.39677076 -5 18 C-7.125 18.8125 -7.125 18.8125 -10 19 C-15.63333333 15.1 -15.63333333 15.1 -17 11 C-17.99 11.495 -17.99 11.495 -19 12 C-19.125 9.125 -19.125 9.125 -19 6 C-13.25574634 0.25574634 -8.03557746 -3.84310226 0 0 Z " fill="#2F3A28" transform="translate(316,296)"/>
<path d="M0 0 C7.23973458 0.29405084 14.14571471 0.65681866 21.1875 2.4375 C36.99920335 6.08083233 53.93556775 6.55805766 70.07177734 5.38989258 C78.10409781 4.82697383 85.98818849 5.32543038 94 6 C94 6.33 94 6.66 94 7 C92.85660156 7.04898437 91.71320313 7.09796875 90.53515625 7.1484375 C89.04424527 7.22345189 87.55336108 7.29900028 86.0625 7.375 C84.93038086 7.42140625 84.93038086 7.42140625 83.77539062 7.46875 C81.84492605 7.5726315 79.92057919 7.77895614 78 8 C77.67 8.66 77.34 9.32 77 10 C76.154375 9.98839844 75.30875 9.97679687 74.4375 9.96484375 C66.88445234 9.87700366 66.88445234 9.87700366 59.375 10.5625 C56 11 56 11 53 10 C49.41066531 9.94204909 45.83653205 9.97849735 42.24804688 10.0390625 C41.13719727 10.05066406 41.13719727 10.05066406 40.00390625 10.0625 C39.33174072 10.07410156 38.6595752 10.08570313 37.96704102 10.09765625 C35.84420024 9.99226512 34.04861433 9.56139912 32 9 C28.15049072 8.12468736 24.29373843 7.28260566 20.4375 6.4375 C19.38369141 6.20353516 18.32988281 5.96957031 17.24414062 5.72851562 C16.23416016 5.50744141 15.22417969 5.28636719 14.18359375 5.05859375 C12.79998657 4.75393188 12.79998657 4.75393188 11.38842773 4.44311523 C8.91325313 3.90879342 8.91325313 3.90879342 6 4 C6 3.34 6 2.68 6 2 C3.03 1.505 3.03 1.505 0 1 C0 0.67 0 0.34 0 0 Z " fill="#D8E7B7" transform="translate(162,386)"/>
<path d="M0 0 C4.91126203 -0.07424001 9.82219634 -0.12864411 14.73388672 -0.16479492 C16.40419201 -0.17986754 18.07445781 -0.2003292 19.74462891 -0.22631836 C22.14756013 -0.26276973 24.54996744 -0.27974131 26.953125 -0.29296875 C27.69806213 -0.30845261 28.44299927 -0.32393646 29.21051025 -0.33988953 C33.45825658 -0.34126371 35.92560925 -0.01476222 39 3 C39.53625 3.45375 40.0725 3.9075 40.625 4.375 C42 6 42 6 42.90258789 8.33374023 C43.99377679 10.98488017 45.24323313 12.97978252 46.93359375 15.28515625 C47.50013672 16.06310547 48.06667969 16.84105469 48.65039062 17.64257812 C49.53500977 18.84043945 49.53500977 18.84043945 50.4375 20.0625 C51.02337891 20.86494141 51.60925781 21.66738281 52.21289062 22.49414062 C54.78587742 26.01337909 57.38046416 29.51526946 60 33 C59.505 33.99 59.505 33.99 59 35 C56.40156876 34.6268847 55.22556789 34.23545224 53.38427734 32.31347656 C52.8733252 31.59643555 52.36237305 30.87939453 51.8359375 30.140625 C51.27132812 29.35429687 50.70671875 28.56796875 50.125 27.7578125 C49.5475 26.93023437 48.97 26.10265625 48.375 25.25 C47.49714844 24.03183594 47.49714844 24.03183594 46.6015625 22.7890625 C43.86833714 18.93997908 41.63847532 15.45329188 40 11 C39.01 11.33 38.02 11.66 37 12 C36.16382818 10.8562364 35.33113541 9.70992861 34.5 8.5625 C34.0359375 7.92441406 33.571875 7.28632813 33.09375 6.62890625 C32 5 32 5 32 4 C30.65252686 3.97812622 30.65252686 3.97812622 29.27783203 3.95581055 C25.9489341 3.89480303 22.62087117 3.82066372 19.29248047 3.73754883 C17.85118658 3.70426822 16.40976137 3.67624596 14.96826172 3.65356445 C12.89754203 3.6200738 10.82802907 3.567767 8.7578125 3.51171875 C7.5114502 3.48553467 6.26508789 3.45935059 4.98095703 3.43237305 C3.99724121 3.28968994 3.01352539 3.14700684 2 3 C1.34 2.01 0.68 1.02 0 0 Z " fill="#303C28" transform="translate(285,165)"/>
<path d="M0 0 C21.12 0 42.24 0 64 0 C63.67 0.66 63.34 1.32 63 2 C42.87 2 22.74 2 2 2 C2 15.2 2 28.4 2 42 C3.65 41.34 5.3 40.68 7 40 C5.625 42 5.625 42 4 44 C3.34 44 2.68 44 2 44 C1.67 44.99 1.34 45.98 1 47 C0.67 47 0.34 47 0 47 C0 31.49 0 15.98 0 0 Z " fill="#78B25A" transform="translate(284,237)"/>
<path d="M0 0 C3.75212276 2.01502889 5.63644095 3.45466142 8 7 C8.79545618 12.409102 8.99640824 16.65350237 5.6875 21.125 C1.99811418 23.69899011 -1.27598607 24.52684431 -5.79296875 24.4765625 C-10.20200241 23.52452337 -13.31360503 20.50490593 -16 17 C-16.5 13.5625 -16.5 13.5625 -16 11 C-14 14 -14 14 -12.5625 16.5625 C-11.0772081 19.23823502 -11.0772081 19.23823502 -8 21 C-6.68 21 -5.36 21 -4 21 C-4.969375 20.360625 -5.93875 19.72125 -6.9375 19.0625 C-10 17 -10 17 -11 16 C-11.14115161 13.32941149 -11.04247107 10.67567762 -11 8 C-10.34 7.67 -9.68 7.34 -9 7 C-9.06510417 9.01822917 -9.13020833 11.03645833 -9.1953125 13.0546875 C-9.18331689 15.23863645 -9.18331689 15.23863645 -7 17 C-4.31160615 17.26991906 -1.70858064 17.08737357 1 17 C1.50367757 15.54293274 2.00282556 14.08429904 2.5 12.625 C2.7784375 11.81289063 3.056875 11.00078125 3.34375 10.1640625 C4.09673305 8.05790758 4.09673305 8.05790758 4 6 C4 5.34 4 4.68 4 4 C-1.55814315 2.11420143 -4.8680644 1.61594472 -10.30078125 3.99609375 C-12.50412077 5.29783687 -13.76865305 6.76818365 -15 9 C-14.79570164 5.3226295 -14.22067989 4.19915015 -11.4375 1.6875 C-7.3618264 -0.31328522 -4.45147982 -0.89561646 0 0 Z " fill="#232D1D" transform="translate(314,293)"/>
<path d="M0 0 C4.46526049 4.17314064 7.97924094 8.81142531 11.5625 13.75 C12.1723877 14.58402344 12.78227539 15.41804687 13.41064453 16.27734375 C17.91641507 22.45802199 22.35645681 28.68455724 26.74047852 34.95214844 C27.18447998 35.58668945 27.62848145 36.22123047 28.0859375 36.875 C28.72091911 37.80474892 28.72091911 37.80474892 29.36872864 38.75328064 C30.99613488 41.06340083 30.99613488 41.06340083 33.0071106 43.30989075 C39.27901465 50.86284905 40.09798093 56.56731519 39.78125 66.19921875 C39.76993042 67.51541702 39.75861084 68.8316153 39.74694824 70.18769836 C39.71672608 73.64943079 39.63844477 77.10838109 39.54931641 80.56903076 C39.46676188 84.11529924 39.43079047 87.6620274 39.390625 91.20898438 C39.30540189 98.14056564 39.16496552 105.06986194 39 112 C32.07 111.505 32.07 111.505 25 111 C25 110.67 25 110.34 25 110 C29.29 110 33.58 110 38 110 C38.08001866 102.2619272 38.10022318 94.52674752 38.06713867 86.78833008 C38.06407334 84.16102095 38.07680813 81.53364063 38.10620117 78.90649414 C38.60881905 58.01272098 38.60881905 58.01272098 28 41 C26.87285629 39.48315318 25.76978438 37.94791959 24.69921875 36.390625 C23.6964159 35.00961478 22.69250928 33.62940536 21.6875 32.25 C16.69219694 25.36602921 11.75750777 18.44226167 6.86987305 11.48144531 C6.40492432 10.81983398 5.93997559 10.15822266 5.4609375 9.4765625 C5.03264648 8.86586914 4.60435547 8.25517578 4.16308594 7.62597656 C3.19702686 6.27544057 2.18590957 4.9572714 1.1640625 3.6484375 C0 2 0 2 0 0 Z " fill="#7DBA5F" transform="translate(321,176)"/>
<path d="M0 0 C23.43 0 46.86 0 71 0 C70.67 0.99 70.34 1.98 70 3 C49.54 3 29.08 3 8 3 C8 2.67 8 2.34 8 2 C5.36 1.67 2.72 1.34 0 1 C0 0.67 0 0.34 0 0 Z " fill="#313E28" transform="translate(188,135)"/>
<path d="M0 0 C4.55065282 1.8616307 6.84689454 4.61097733 9 9 C9.18721238 11.99539811 8.73631333 14.00565914 8 17 C7.01 17.99 6.02 18.98 5 20 C5.33 17.03 5.66 14.06 6 11 C5.34 12.65 4.68 14.3 4 16 C3.67 16 3.34 16 3 16 C2.86722656 15.43410156 2.73445312 14.86820312 2.59765625 14.28515625 C2.42105469 13.55167969 2.24445313 12.81820313 2.0625 12.0625 C1.88847656 11.33160156 1.71445313 10.60070312 1.53515625 9.84765625 C1.16112431 8.00030102 1.16112431 8.00030102 0 7 C-3.5 6.83333333 -3.5 6.83333333 -7 7 C-8.87643761 8.87643761 -8.17984987 11.49805701 -8.23046875 13.9921875 C-8.11831337 16.31674328 -8.11831337 16.31674328 -6 19 C-9.875 17.25 -9.875 17.25 -11 15 C-11.375 12.1875 -11.375 12.1875 -11 9 C-8.5 6.125 -8.5 6.125 -6 4 C-7.65 3.67 -9.3 3.34 -11 3 C-8.32207354 -1.01688969 -4.34892986 -0.61396657 0 0 Z " fill="#212B1C" transform="translate(158,293)"/>
<path d="M0 0 C3.5625 0.375 3.5625 0.375 5.5625 2 C6.90430884 5.18679601 6.49197204 7.08609893 5.5625 10.375 C3.5625 12.375 3.5625 12.375 0.0625 12.625 C-3.4375 12.375 -3.4375 12.375 -5.4375 10.375 C-5.703125 8.5 -5.703125 8.5 -5.6875 6.375 C-5.69265625 5.67375 -5.6978125 4.9725 -5.703125 4.25 C-5.17911634 0.55111533 -3.46857294 0.37838978 0 0 Z " fill="#E9EBD1" transform="translate(154.4375,298.625)"/>
<path d="M0 0 C0.99 0.66 1.98 1.32 3 2 C3.37331109 5.42201828 3.63763183 7.90185629 1.875 10.9375 C-0.88980433 12.50422245 -2.88188517 12.38976435 -6 12 C-7.875 10.875 -7.875 10.875 -9 9 C-9.39365568 5.85075452 -9.52854531 3.88090884 -7.875 1.125 C-5.14747535 -0.51151479 -3.12026907 -0.32502803 0 0 Z " fill="#EEF0D5" transform="translate(313,299)"/>
<path d="M0 0 C4.87449089 -0.17367998 9.74716397 -0.30035478 14.62402344 -0.38452148 C16.28091823 -0.4196197 17.9375978 -0.46731347 19.59375 -0.52807617 C33.31002293 -1.01853184 33.31002293 -1.01853184 37.34179688 1.41137695 C38.90717916 3.20305907 39.95670312 4.86883767 41 7 C41.87398438 8.28583984 41.87398438 8.28583984 42.765625 9.59765625 C43.50039063 10.81775391 43.50039063 10.81775391 44.25 12.0625 C47.03046822 16.54454078 49.97705159 20.85129143 53.0625 25.125 C56.82812935 30.34129932 60.49003482 35.60663888 64 41 C63.01 41.495 63.01 41.495 62 42 C61.35675781 41.05382812 60.71351563 40.10765625 60.05078125 39.1328125 C54.29736283 30.701655 48.42947175 22.36654486 42.41723633 14.11767578 C41.8992749 13.40595215 41.38131348 12.69422852 40.84765625 11.9609375 C40.39398682 11.34009277 39.94031738 10.71924805 39.47290039 10.07958984 C38 8 38 8 36.3112793 4.80273438 C34.20393378 1.6576102 34.20393378 1.6576102 30.42480469 1.22705078 C29.00770788 1.18629682 27.58944559 1.17748378 26.171875 1.1953125 C25.42286926 1.18160614 24.67386353 1.16789978 23.90216064 1.15377808 C21.51749576 1.11648367 19.13491504 1.1201917 16.75 1.125 C15.13017579 1.10687247 13.51037916 1.08606958 11.890625 1.0625 C7.92673422 1.01065566 3.96421122 0.99556859 0 1 C0 0.67 0 0.34 0 0 Z " fill="#7BB95D" transform="translate(284,189)"/>
<path d="M0 0 C0 0.33 0 0.66 0 1 C-1.14339844 1.04898437 -2.28679687 1.09796875 -3.46484375 1.1484375 C-4.95575473 1.22345189 -6.44663892 1.29900028 -7.9375 1.375 C-9.06961914 1.42140625 -9.06961914 1.42140625 -10.22460938 1.46875 C-12.15507395 1.5726315 -14.07942081 1.77895614 -16 2 C-16.33 2.66 -16.66 3.32 -17 4 C-17.845625 3.98839844 -18.69125 3.97679687 -19.5625 3.96484375 C-27.0892147 3.87156231 -27.0892147 3.87156231 -34.5625 4.625 C-37.95893261 4.99551992 -39.25878535 4.94169371 -42 3 C-42 2.67 -42 2.34 -42 2 C-41.21753906 1.93941406 -40.43507812 1.87882812 -39.62890625 1.81640625 C-38.61699219 1.73261719 -37.60507813 1.64882813 -36.5625 1.5625 C-35.55316406 1.48128906 -34.54382813 1.40007812 -33.50390625 1.31640625 C-31.06359221 1.26788532 -31.06359221 1.26788532 -30 0 C-20.04157942 -1.9069316 -10.02781043 -0.88018399 0 0 Z " fill="#A6B18E" transform="translate(256,392)"/>
<path d="M0 0 C0.66 0.35707031 1.32 0.71414063 2 1.08203125 C2.66 1.44683594 3.32 1.81164062 4 2.1875 C6.94543324 3.69897232 9.91338041 4.98714794 13 6.1875 C13 6.5175 13 6.8475 13 7.1875 C15.64 7.5175 18.28 7.8475 21 8.1875 C21 8.5175 21 8.8475 21 9.1875 C10.47906687 9.73325446 2.68221568 9.05140666 -6.125 3.0625 C-6.74375 2.44375 -7.3625 1.825 -8 1.1875 C-8 0.5275 -8 -0.1325 -8 -0.8125 C-4.62058264 -1.99680474 -3.10789279 -1.71783918 0 0 Z " fill="#2C3926" transform="translate(139,327.8125)"/>
<path d="M0 0 C0 0.99 0 1.98 0 3 C-2.66480272 4.27486585 -5.33171716 5.54495466 -8 6.8125 C-9.11568359 7.34713867 -9.11568359 7.34713867 -10.25390625 7.89257812 C-23.14112672 14 -23.14112672 14 -28 14 C-28 13.34 -28 12.68 -28 12 C-27.34 12 -26.68 12 -26 12 C-26 11.34 -26 10.68 -26 10 C-23.36 10 -20.72 10 -18 10 C-18 9.01 -18 8.02 -18 7 C-16.02 7 -14.04 7 -12 7 C-11.67 6.01 -11.34 5.02 -11 4 C-9.00390625 2.83203125 -9.00390625 2.83203125 -6.5625 1.8125 C-5.75941406 1.46832031 -4.95632813 1.12414062 -4.12890625 0.76953125 C-2 0 -2 0 0 0 Z " fill="#9BA782" transform="translate(304,373)"/>
<path d="M0 0 C-0.62648437 0.17015625 -1.25296875 0.3403125 -1.8984375 0.515625 C-2.71570313 0.75796875 -3.53296875 1.0003125 -4.375 1.25 C-5.18710938 1.48203125 -5.99921875 1.7140625 -6.8359375 1.953125 C-9.55773977 3.26980913 -9.69527349 4.32884096 -11 7 C-13.93558008 11.13874909 -16.81159078 14.5140141 -21.90234375 15.64453125 C-25.13630618 15.78584047 -28.26958602 15.70093484 -31.5 15.5 C-32.60859375 15.46390625 -33.7171875 15.4278125 -34.859375 15.390625 C-37.57657034 15.29692861 -40.28641941 15.1659292 -43 15 C-43 14.67 -43 14.34 -43 14 C-42.33468262 14.01160156 -41.66936523 14.02320313 -40.98388672 14.03515625 C-37.94637878 14.06477499 -34.91244758 14.03293618 -31.875 14 C-30.82828125 14.01933594 -29.7815625 14.03867187 -28.703125 14.05859375 C-22.91673612 14.06728122 -22.91673612 14.06728122 -18.09912109 11.27758789 C-16.55562175 9.18370299 -16.55562175 9.18370299 -15.23974609 6.97314453 C-13.56660252 4.31021694 -11.57676597 2.99165064 -8.875 1.4375 C-8.04742187 0.94121094 -7.21984375 0.44492187 -6.3671875 -0.06640625 C-3.71051581 -1.11416951 -2.62219572 -1.00900158 0 0 Z " fill="#1D1E19" transform="translate(145,274)"/>
<path d="M0 0 C3.50733885 2.86964087 6.84839187 5.73583443 10 9 C10.66 9.66 11.32 10.32 12 11 C12.66666667 12.33333333 13.33333333 13.66666667 14 15 C14.53625 15.70125 15.0725 16.4025 15.625 17.125 C17 19 17 19 17 21 C16.01 21.33 15.02 21.66 14 22 C9.65346984 16.16594374 5.42752566 10.4266106 2 4 C1.34 4 0.68 4 0 4 C0 2.68 0 1.36 0 0 Z " fill="#AEBE96" transform="translate(350,100)"/>
<path d="M0 0 C1.6210886 3.2421772 0.90555177 6.7082525 0.7421875 10.2734375 C1.04485417 13.47436688 1.74250662 14.74250662 4 17 C8.61597929 18.13222133 12.37886688 18.01439508 17 17 C15.38319357 18.92990228 14.43860701 19.89974697 11.94921875 20.46875 C7.69897609 20.52747529 4.87031046 20.38326861 1.5 17.625 C-1.77662234 14.18454655 -2.15355482 12.68583324 -2.1875 8.0625 C-2.20167969 7.18722656 -2.21585938 6.31195313 -2.23046875 5.41015625 C-2 3 -2 3 0 0 Z " fill="#232E1C" transform="translate(145,297)"/>
<path d="M0 0 C6.36524286 0.59674152 9.98881557 2.41425963 14.25 7.1015625 C14.745 7.8440625 15.24 8.5865625 15.75 9.3515625 C13.23237316 8.14310162 11.04181046 6.86970157 8.71875 5.2890625 C4.1741928 2.68268632 -0.07093757 2.89923456 -5.1875 3.1015625 C-6.49944336 3.12863281 -6.49944336 3.12863281 -7.83789062 3.15625 C-9.97574108 3.20297897 -12.11302045 3.27470809 -14.25 3.3515625 C-10.34921338 -1.08787265 -5.54685784 -0.17880128 0 0 Z " fill="#6E7760" transform="translate(315.25,277.6484375)"/>
<path d="M0 0 C2.35500948 0.11517421 4.70849073 0.24187978 7.0625 0.375 C8.37347656 0.44460938 9.68445313 0.51421875 11.03515625 0.5859375 C15.05121862 1.00534894 18.23225161 1.58889423 22 3 C22.33 3.99 22.66 4.98 23 6 C17.32644329 5.38273804 11.66138945 4.72054048 6 4 C6 3.34 6 2.68 6 2 C3.03 1.505 3.03 1.505 0 1 C0 0.67 0 0.34 0 0 Z " fill="#A2AF86" transform="translate(162,386)"/>
<path d="M0 0 C2.60700463 0.37644248 3.75687341 0.7343842 5.5625 2.70703125 C6.036875 3.40183594 6.51125 4.09664063 7 4.8125 C8.68907977 7.21569704 10.16733609 9.15829089 12.3125 11.1875 C14.36863112 13.39593713 14.67142993 15.04286938 15 18 C8.92530838 13.44398128 2.43990636 7.31971908 0 0 Z " fill="#9BA782" transform="translate(76,323)"/>
<path d="M0 0 C0.33 0 0.66 0 1 0 C1.36590746 1.72672034 1.71722195 3.45653655 2.0625 5.1875 C2.25972656 6.15042969 2.45695312 7.11335937 2.66015625 8.10546875 C3.00864784 11.07365577 2.68121734 13.11539693 2 16 C1.60661136 21.14878166 1.60661136 21.14878166 3 26 C2.39239518 28.3494053 1.72870472 30.68529088 1 33 C0.67 33 0.34 33 0 33 C0 22.11 0 11.22 0 0 Z " fill="#535A4B" transform="translate(397,203)"/>
<path d="M0 0 C1.32 0 2.64 0 4 0 C4 2.33333333 4 4.66666667 4 7 C-1.28 7 -6.56 7 -12 7 C-10.68 6.34 -9.36 5.68 -8 5 C-7.01 4.34 -6.02 3.68 -5 3 C-3.34450469 2.61500109 -1.6777567 2.27206865 0 2 C0 1.34 0 0.68 0 0 Z " fill="#2E3A27" transform="translate(319,330)"/>
<path d="M0 0 C0.66 0 1.32 0 2 0 C3.37898043 1.69810754 4.67959478 3.46035459 5.9375 5.25 C6.62714844 6.22453125 7.31679688 7.1990625 8.02734375 8.203125 C9.00380859 9.58757812 9.00380859 9.58757812 10 11 C10.57878906 11.73734375 11.15757812 12.4746875 11.75390625 13.234375 C13 15 13 15 13 17 C13.66 17 14.32 17 15 17 C16.4783226 19.95664519 16.06032783 22.74229737 16 26 C15.67 26 15.34 26 15 26 C14.80664062 25.02675781 14.61328125 24.05351562 14.4140625 23.05078125 C12.95534854 17.94270969 9.67446502 14.25190509 6.375 10.1875 C5.17037947 8.68426573 3.96964141 7.17790918 2.7734375 5.66796875 C2.24153809 5.01078857 1.70963867 4.3536084 1.16162109 3.67651367 C0 2 0 2 0 0 Z " fill="#D7DEC7" transform="translate(352,205)"/>
<path d="M0 0 C2.31987488 2.86338843 3.79609627 5.56787067 5.125 9 C5.45757812 9.845625 5.79015625 10.69125 6.1328125 11.5625 C6.89272234 13.6984628 7.49892523 15.79118062 8 18 C6.68 18.33 5.36 18.66 4 19 C2 12.375 2 12.375 2 9 C1.34 8.34 0.68 7.68 0 7 C-0.125 3.375 -0.125 3.375 0 0 Z " fill="#A4AE8B" transform="translate(383,151)"/>
<path d="M0 0 C8.11138929 0.36620268 15.33035667 2.41540233 23 5 C20 7 20 7 16.34765625 6.42578125 C14.91583855 6.06815919 13.4874727 5.69648996 12.0625 5.3125 C11.34642578 5.13783203 10.63035156 4.96316406 9.89257812 4.78320312 C6.00684902 3.77845945 2.9944574 2.71299404 0 0 Z " fill="#C4D3A3" transform="translate(254,47)"/>
<path d="M0 0 C2.02408755 0.09002398 4.04544287 0.24641038 6.0625 0.4375 C7.71958984 0.59025391 7.71958984 0.59025391 9.41015625 0.74609375 C10.26480469 0.82988281 11.11945313 0.91367187 12 1 C12 1.33 12 1.66 12 2 C9.98177083 2.42317708 7.96354167 2.84635417 5.9453125 3.26953125 C3.62953451 3.92308838 3.62953451 3.92308838 2 7 C1.60612212 9.32387947 1.26513915 11.65793749 1 14 C0.67 14 0.34 14 0 14 C-0.19393875 11.85473901 -0.37998676 9.70876323 -0.5625 7.5625 C-0.71912109 5.77005859 -0.71912109 5.77005859 -0.87890625 3.94140625 C-0.91886719 2.97074219 -0.95882812 2.00007813 -1 1 C-0.67 0.67 -0.34 0.34 0 0 Z " fill="#2F3B29" transform="translate(146,295)"/>
<path d="M0 0 C7.15962085 2.38654028 12.37065017 13.56083095 16 20 C15.67 20.66 15.34 21.32 15 22 C12.87017834 19.08682653 10.74700254 16.16887269 8.625 13.25 C8.02171875 12.425 7.4184375 11.6 6.796875 10.75 C6.21679688 9.95078125 5.63671875 9.1515625 5.0390625 8.328125 C4.50490723 7.5949707 3.97075195 6.86181641 3.42041016 6.10644531 C2.08633714 4.12803658 1.01087473 2.15823887 0 0 Z " fill="#D5DCC4" transform="translate(323,165)"/>
<path d="M0 0 C1.49549299 2.99098599 2.35338712 4.99060188 3.0625 8.125 C3.7904776 11.7679114 3.7904776 11.7679114 5 14 C4.34 14 3.68 14 3 14 C3.33 16.31 3.66 18.62 4 21 C3.34 21 2.68 21 2 21 C2 20.01 2 19.02 2 18 C1.34 18 0.68 18 0 18 C0 12.06 0 6.12 0 0 Z " fill="#798364" transform="translate(393,181)"/>
<path d="M0 0 C7.26 0.33 14.52 0.66 22 1 C22 1.66 22 2.32 22 3 C20.41773035 3.19627391 18.83410729 3.38165538 17.25 3.5625 C16.36828125 3.66691406 15.4865625 3.77132813 14.578125 3.87890625 C12.0634505 3.99701975 10.38505904 3.73090519 8 3 C7.29359375 2.82339844 6.5871875 2.64679688 5.859375 2.46484375 C3.90625 1.9765625 1.953125 1.48828125 0 1 C0 0.67 0 0.34 0 0 Z " fill="#6F7456" transform="translate(186,392)"/>
<path d="M0 0 C0.33 0 0.66 0 1 0 C2.02037299 6.34898752 3.01334266 12.77865175 -0.5625 18.5 C-1.036875 18.995 -1.51125 19.49 -2 20 C-2.22731216 13.06697907 -1.42002108 6.7831364 0 0 Z " fill="#BCC99E" transform="translate(45,180)"/>
<path d="M0 0 C0.33 1.32 0.66 2.64 1 4 C-3.26616316 5.13764351 -6.56486311 6 -11 6 C-11 5.34 -11 4.68 -11 4 C-10.01 4 -9.02 4 -8 4 C-8 3.34 -8 2.68 -8 2 C-5.36 1.34 -2.72 0.68 0 0 Z " fill="#919A7A" transform="translate(272,385)"/>
<path d="M0 0 C0.99 0 1.98 0 3 0 C0.10933941 9.59453303 0.10933941 9.59453303 -3 13 C-3.31563182 7.73946963 -2.66590937 4.55426184 0 0 Z " fill="#95A37F" transform="translate(383,284)"/>
<path d="M0 0 C0.33 0 0.66 0 1 0 C1.33 2.97 1.66 5.94 2 9 C1.34 9 0.68 9 0 9 C0.185625 9.94875 0.37125 10.8975 0.5625 11.875 C1 15 1 15 0 17 C-0.99 17 -1.98 17 -3 17 C-3 15.02 -3 13.04 -3 11 C-2.34 11 -1.68 11 -1 11 C-0.67 7.37 -0.34 3.74 0 0 Z " fill="#899171" transform="translate(396,236)"/>
<path d="M0 0 C-1.57780923 3.71045247 -3.90703248 6.29906384 -6.625 9.25 C-7.44226563 10.14203125 -8.25953125 11.0340625 -9.1015625 11.953125 C-9.72804688 12.62859375 -10.35453125 13.3040625 -11 14 C-11 13.01 -11 12.02 -11 11 C-9.66666667 9.66666667 -8.33333333 8.33333333 -7 7 C-6.63837971 5.67405895 -6.30271961 4.34061543 -6 3 C-3.90598151 0.33488555 -3.51745769 0 0 0 Z " fill="#5F654E" transform="translate(360,328)"/>
<path d="M0 0 C1.18239258 0.07831055 1.18239258 0.07831055 2.38867188 0.15820312 C4.32201529 0.28709269 6.25482164 0.42399494 8.1875 0.5625 C8.1875 0.8925 8.1875 1.2225 8.1875 1.5625 C5.83378886 1.7593999 3.4800305 1.94520974 1.125 2.125 C-0.84146484 2.28162109 -0.84146484 2.28162109 -2.84765625 2.44140625 C-6.73575897 2.56015619 -10.00360223 2.23116216 -13.8125 1.5625 C-13.8125 1.2325 -13.8125 0.9025 -13.8125 0.5625 C-9.12565199 -0.70548493 -4.77955063 -0.34855063 0 0 Z " fill="#828A6C" transform="translate(247.8125,391.4375)"/>
<path d="M0 0 C1 2 1 2 0.47094727 3.78759766 C0.17244873 4.48933105 -0.1260498 5.19106445 -0.43359375 5.9140625 C-0.75263672 6.67460937 -1.07167969 7.43515625 -1.40039062 8.21875 C-1.74263672 9.0128125 -2.08488281 9.806875 -2.4375 10.625 C-2.77587891 11.42679688 -3.11425781 12.22859375 -3.46289062 13.0546875 C-4.30166778 15.03939964 -5.14995245 17.02008875 -6 19 C-7.40638476 14.62105649 -5.974061 11.82701689 -4.125 7.8125 C-3.84269531 7.17119141 -3.56039062 6.52988281 -3.26953125 5.86914062 C-1.17994048 1.17994048 -1.17994048 1.17994048 0 0 Z " fill="#538A3B" transform="translate(164,234)"/>
<path d="M0 0 C3.21524305 1.40844718 5.32183868 3.10344786 7.75 5.625 C8.67039062 6.57246094 8.67039062 6.57246094 9.609375 7.5390625 C10.29773438 8.26222656 10.29773438 8.26222656 11 9 C10.67 9.66 10.34 10.32 10 11 C6.30379783 9.05463044 4.74666289 7.74284906 3 4 C2.01 3.67 1.02 3.34 0 3 C0 2.01 0 1.02 0 0 Z " fill="#97A680" transform="translate(339,89)"/>
<path d="M0 0 C0.99 0 1.98 0 3 0 C1.55007731 4.10811428 -0.45407573 7.46855666 -3 11 C-3.33 11 -3.66 11 -4 11 C-4.42362933 7.39915071 -3.96714943 5.93996275 -2.1875 2.6875 C-1.465625 1.800625 -0.74375 0.91375 0 0 Z " fill="#879272" transform="translate(371,308)"/>
<path d="M0 0 C0.99 0.33 1.98 0.66 3 1 C2.46890625 1.45890625 1.9378125 1.9178125 1.390625 2.390625 C-2.18324699 5.49493717 -5.71854059 8.58181312 -9 12 C-8.51113445 7.71872287 -7.38573844 5.90797457 -4.125 3.125 C-3.42632812 2.50882812 -2.72765625 1.89265625 -2.0078125 1.2578125 C-1.34523438 0.84273438 -0.68265625 0.42765625 0 0 Z " fill="#6C725F" transform="translate(296,282)"/>
<path d="M0 0 C5.75162004 0.67666118 9.50451752 3.42782611 13.4375 7.5625 C13.953125 8.366875 14.46875 9.17125 15 10 C14.67 10.99 14.34 11.98 14 13 C13.319375 11.700625 13.319375 11.700625 12.625 10.375 C10.00337088 6.34687643 6.17504718 4.47209968 2.046875 2.19921875 C1.37140625 1.80347656 0.6959375 1.40773438 0 1 C0 0.67 0 0.34 0 0 Z " fill="#707662" transform="translate(162,280)"/>
<path d="M0 0 C0.33 0 0.66 0 1 0 C1.33 1.65 1.66 3.3 2 5 C2.33 5 2.66 5 3 5 C3.33 8.63 3.66 12.26 4 16 C3.34 16.33 2.68 16.66 2 17 C0.4943096 11.19233704 -0.21824777 6.0018137 0 0 Z " fill="#B7C39A" transform="translate(44,245)"/>
<path d="M0 0 C0.66 0.33 1.32 0.66 2 1 C-5.11389522 9.6309795 -5.11389522 9.6309795 -10 12 C-8.43873668 8.16780823 -5.97133075 5.82638778 -3 3 C-2.401875 2.401875 -1.80375 1.80375 -1.1875 1.1875 C-0.795625 0.795625 -0.40375 0.40375 0 0 Z " fill="#518A38" transform="translate(175,197)"/>
<path d="M0 0 C4.95 0 9.9 0 15 0 C11.33169091 2.44553939 8.36622085 2.95607424 4 3 C1.5 2.0625 1.5 2.0625 0 1 C0 0.67 0 0.34 0 0 Z " fill="#7E8C6A" transform="translate(214,394)"/>
<path d="M0 0 C0.99 0 1.98 0 3 0 C3.33 0.99 3.66 1.98 4 3 C3.34 3 2.68 3 2 3 C1.34 5.97 0.68 8.94 0 12 C-0.33 12 -0.66 12 -1 12 C-2.11658501 7.31034294 -1.80619523 4.46236469 0 0 Z " fill="#8E9976" transform="translate(387,272)"/>
<path d="M0 0 C0.99 0 1.98 0 3 0 C1.77472971 4.05281712 0.30119506 7.44360764 -2 11 C-3.00206597 8.29442187 -3.05573121 7.16719364 -2.125 4.375 C-1.43096229 2.90980927 -0.72504789 1.45009578 0 0 Z " fill="#8E987A" transform="translate(377,297)"/>
<path d="M0 0 C-0.33 0.99 -0.66 1.98 -1 3 C-2.11375 3.309375 -3.2275 3.61875 -4.375 3.9375 C-8.16267635 5.047681 -9.10945826 5.66374986 -11 9 C-10.875 6.75 -10.875 6.75 -10 4 C-6.35345986 1.00173367 -4.78447394 0 0 0 Z " fill="#27301F" transform="translate(310,293)"/>
<path d="M0 0 C0.66 0.33 1.32 0.66 2 1 C-0.57784846 3.64752004 -2.91648098 5.94432065 -6 8 C-7.32 7.67 -8.64 7.34 -10 7 C-6.7 4.69 -3.4 2.38 0 0 Z " fill="#C4D4A6" transform="translate(124,69)"/>
<path d="M0 0 C6.86515862 -0.26404456 13.25846717 0.74158054 20 2 C20 2.33 20 2.66 20 3 C17.60385874 3.05425226 15.20896147 3.09379027 12.8125 3.125 C11.80219727 3.15013672 11.80219727 3.15013672 10.77148438 3.17578125 C6.71192193 3.21538674 3.65001185 2.80020002 0 1 C0 0.67 0 0.34 0 0 Z " fill="#BFCC9D" transform="translate(233,44)"/>
<path d="M0 0 C-1.60149886 0.67305018 -3.20631029 1.33822227 -4.8125 2 C-6.15248047 2.556875 -6.15248047 2.556875 -7.51953125 3.125 C-10 4 -10 4 -13 4 C-13 3.34 -13 2.68 -13 2 C-12.34 2 -11.68 2 -11 2 C-11 1.34 -11 0.68 -11 0 C-3.375 -1.125 -3.375 -1.125 0 0 Z " fill="#6C745A" transform="translate(289,383)"/>
<path d="M0 0 C3.98330067 0 6.02353977 0.1083674 9.0234375 2.84765625 C10.75551558 4.85191803 12.41157202 6.88048667 14 9 C13.67 9.66 13.34 10.32 13 11 C12.34644531 10.16855469 12.34644531 10.16855469 11.6796875 9.3203125 C8.14396664 5.0192841 5.70406753 2.11298879 0 1 C0 0.67 0 0.34 0 0 Z " fill="#22261D" transform="translate(263,140)"/>
<path d="M0 0 C5.63689034 1.32632714 7.93185683 5.46631765 11 10 C10.67 10.66 10.34 11.32 10 12 C8.33032474 10.19019128 6.66417692 8.3773524 5 6.5625 C4.28457031 5.7880957 4.28457031 5.7880957 3.5546875 4.99804688 C0 1.11328125 0 1.11328125 0 0 Z " fill="#20211C" transform="translate(330,277)"/>
<path d="M0 0 C0.33 0 0.66 0 1 0 C1.59732819 2.76264289 2 5.16032769 2 8 C0.5 9.6875 0.5 9.6875 -1 11 C-1.02688151 9.35425434 -1.04634123 7.70838587 -1.0625 6.0625 C-1.07410156 5.14597656 -1.08570313 4.22945312 -1.09765625 3.28515625 C-1 1 -1 1 0 0 Z " fill="#53893A" transform="translate(160,218)"/>
<path d="M0 0 C6.57142857 5.14285714 6.57142857 5.14285714 8 9 C7.01 9.33 6.02 9.66 5 10 C4.01 8.02 3.02 6.04 2 4 C1.34 4 0.68 4 0 4 C0 2.68 0 1.36 0 0 Z " fill="#939F7C" transform="translate(350,100)"/>
<path d="M0 0 C6.48292295 -0.3669579 6.48292295 -0.3669579 8.9375 1.375 C10 3 10 3 10 5 C6.7 4.01 3.4 3.02 0 2 C0 1.34 0 0.68 0 0 Z " fill="#707658" transform="translate(140,377)"/>
<path d="M0 0 C4.875 4.625 4.875 4.625 6 8 C5.01 8.33 4.02 8.66 3 9 C0 2.25 0 2.25 0 0 Z " fill="#95A07D" transform="translate(361,113)"/>
<path d="M0 0 C-0.99 0 -1.98 0 -3 0 C-3 0.99 -3 1.98 -3 3 C-4.65 3 -6.3 3 -8 3 C-8.33 2.01 -8.66 1.02 -9 0 C-5.62182575 -0.84454356 -3.32534757 -1.10844919 0 0 Z " fill="#B3C19A" transform="translate(264,389)"/>
<path d="M0 0 C1.60517097 0.08733576 3.20921662 0.19552224 4.8125 0.3125 C6.15248047 0.39951172 6.15248047 0.39951172 7.51953125 0.48828125 C10.30604 1.06313581 11.24135754 1.8206856 13 4 C10.69 4 8.38 4 6 4 C6 3.34 6 2.68 6 2 C3.03 1.505 3.03 1.505 0 1 C0 0.67 0 0.34 0 0 Z " fill="#5E6351" transform="translate(162,386)"/>
<path d="M0 0 C5.61538462 1.46488294 5.61538462 1.46488294 7.4375 4 C8 6 8 6 7 8 C5.83035398 6.8572081 4.66435444 5.71068285 3.5 4.5625 C2.8503125 3.92441406 2.200625 3.28632813 1.53125 2.62890625 C0 1 0 1 0 0 Z " fill="#8F9875" transform="translate(91,341)"/>
<path d="M0 0 C3.36720387 1.39332574 4.9859524 2.9789286 7 6 C5.68 6 4.36 6 3 6 C3 5.34 3 4.68 3 4 C1.68 3.34 0.36 2.68 -1 2 C-0.67 1.34 -0.34 0.68 0 0 Z " fill="#A4B18A" transform="translate(332,83)"/>
<path d="M0 0 C0.33 0.66 0.66 1.32 1 2 C-0.98 3.32 -2.96 4.64 -5 6 C-5.66 5.67 -6.32 5.34 -7 5 C-6.3125 3.0625 -6.3125 3.0625 -5 1 C-2.375 0.25 -2.375 0.25 0 0 Z " fill="#768261" transform="translate(330,357)"/>
<path d="M0 0 C1.50559539 1.96382007 2.89131683 3.78263366 4 6 C6.01669827 7.13350534 6.01669827 7.13350534 8 8 C5.6875 8.6875 5.6875 8.6875 3 9 C1.1875 7.9375 1.1875 7.9375 0 6 C-0.1875 2.8125 -0.1875 2.8125 0 0 Z " fill="#D5D7C8" transform="translate(304,302)"/>
<path d="M0 0 C0.66 0.33 1.32 0.66 2 1 C0.90220176 2.15193623 -0.20349446 3.29634937 -1.3125 4.4375 C-1.92738281 5.07558594 -2.54226562 5.71367187 -3.17578125 6.37109375 C-5 8 -5 8 -8 9 C-6.4169423 4.7257442 -3.49431596 2.73468206 0 0 Z " fill="#4E8835" transform="translate(211,236)"/>
<path d="M0 0 C-5.75 4 -5.75 4 -8 4 C-7.67 2.68 -7.34 1.36 -7 0 C-2.25 -1.125 -2.25 -1.125 0 0 Z " fill="#70795E" transform="translate(322,365)"/>
<path d="M0 0 C2.83374881 3.20336822 3.5205537 5.78087253 4 10 C2 8.9375 2 8.9375 0 7 C-0.25 3.3125 -0.25 3.3125 0 0 Z " fill="#768166" transform="translate(383,151)"/>
<path d="M0 0 C-0.33 1.32 -0.66 2.64 -1 4 C-2.98 4 -4.96 4 -7 4 C-3.17391304 0 -3.17391304 0 0 0 Z " fill="#ABB890" transform="translate(314,367)"/>
<path d="M0 0 C1.32 0.33 2.64 0.66 4 1 C4.66 3.31 5.32 5.62 6 8 C5.34 8 4.68 8 4 8 C2.68 5.36 1.36 2.72 0 0 Z " fill="#ADB78B" transform="translate(60,298)"/>
<path d="M0 0 C0.33 0 0.66 0 1 0 C1 3.63 1 7.26 1 11 C-0.32 11.33 -1.64 11.66 -3 12 C-2.34 11.01 -1.68 10.02 -1 9 C-0.54605448 6.72087062 -0.54605448 6.72087062 -0.375 4.3125 C-0.30023438 3.50425781 -0.22546875 2.69601562 -0.1484375 1.86328125 C-0.09945313 1.24839844 -0.05046875 0.63351562 0 0 Z " fill="#5C6350" transform="translate(322,302)"/>
<path d="M0 0 C0.99 0.495 0.99 0.495 2 1 C1.01 1.495 1.01 1.495 0 2 C0 1.34 0 0.68 0 0 Z " fill="#D7D7B6" transform="translate(58,138)"/>
<path d="M0 0 C3 1 3 1 3 1 Z " fill="#89A489" transform="translate(146,55)"/>
<path d="M0 0 C3 1 3 1 3 1 Z " fill="#7B7B7B" transform="translate(264,47)"/>
<path d="M0 0 C3 1 3 1 3 1 Z " fill="#C1C190" transform="translate(170,47)"/>
<path d="M0 0 C0.33 0.66 0.66 1.32 1 2 C0.34 1.67 -0.32 1.34 -1 1 C-0.67 0.67 -0.34 0.34 0 0 Z " fill="#BCD79A" transform="translate(215,40)"/>
<path d="" fill="#C8C895" transform="translate(0,0)"/>
<path d="" fill="#C8C8C8" transform="translate(0,0)"/>
<path d="" fill="#C8C863" transform="translate(0,0)"/>
<path d="" fill="#C8C896" transform="translate(0,0)"/>
<path d="" fill="#C8C895" transform="translate(0,0)"/>
<path d="M0 0 C2 1 2 1 2 1 Z " fill="#DEDEDE" transform="translate(102,80)"/>
<path d="M0 0 C2 1 2 1 2 1 Z " fill="#527B52" transform="translate(140,58)"/>
<path d="M0 0 C2 1 2 1 2 1 Z " fill="#5C5C5C" transform="translate(281,52)"/>
<path d="M0 0 C2 1 2 1 2 1 Z " fill="#DEDEDE" transform="translate(167,48)"/>
<path d="M0 0 C2 1 2 1 2 1 Z " fill="#DEDEAC" transform="translate(232,42)"/>
<path d="M0 0 C2 1 2 1 2 1 Z " fill="#DEDEDE" transform="translate(217,41)"/>
<path d="M0 0 C2 1 2 1 2 1 Z " fill="#527B52" transform="translate(220,40)"/>
<path d="" fill="#C5C5C5" transform="translate(0,0)"/>
<path d="" fill="#C5C5C5" transform="translate(0,0)"/>
<path d="" fill="#C5C5C5" transform="translate(0,0)"/>
<path d="" fill="#C5C562" transform="translate(0,0)"/>
<path d="" fill="#C6C6C6" transform="translate(0,0)"/>
<path d="" fill="#C5C500" transform="translate(0,0)"/>
<path d="" fill="#C5C5C5" transform="translate(0,0)"/>
<path d="" fill="#C5C5C5" transform="translate(0,0)"/>
<path d="" fill="#C5C5C5" transform="translate(0,0)"/>
<path d="" fill="#C5C5C5" transform="translate(0,0)"/>
<path d="" fill="#C5C5C5" transform="translate(0,0)"/>
<path d="" fill="#C5C5C5" transform="translate(0,0)"/>
<path d="" fill="#C5C5C5" transform="translate(0,0)"/>
<path d="" fill="#C5C5C5" transform="translate(0,0)"/>
<path d="" fill="#C5C5C5" transform="translate(0,0)"/>
<path d="" fill="#C5C5C5" transform="translate(0,0)"/>
<path d="" fill="#C5C5C5" transform="translate(0,0)"/>
<path d="" fill="#C5C5C5" transform="translate(0,0)"/>
<path d="" fill="#C5C562" transform="translate(0,0)"/>
<path d="" fill="#C5C562" transform="translate(0,0)"/>
<path d="" fill="#C5C5C5" transform="translate(0,0)"/>
<path d="" fill="#C5C5C5" transform="translate(0,0)"/>
<path d="" fill="#C5C562" transform="translate(0,0)"/>
<path d="" fill="#C5C5C5" transform="translate(0,0)"/>
<path d="" fill="#C5C5C5" transform="translate(0,0)"/>
<path d="" fill="#C5C5C5" transform="translate(0,0)"/>
<path d="" fill="#C5C5C5" transform="translate(0,0)"/>
<path d="" fill="#C5C5C5" transform="translate(0,0)"/>
<path d="" fill="#C5C5C5" transform="translate(0,0)"/>
<path d="" fill="#C5C5C5" transform="translate(0,0)"/>
<path d="" fill="#C5C5C5" transform="translate(0,0)"/>
<path d="" fill="#C5C562" transform="translate(0,0)"/>
<path d="" fill="#C5C5C5" transform="translate(0,0)"/>
<path d="" fill="#C5C562" transform="translate(0,0)"/>
<path d="" fill="#C6C6C6" transform="translate(0,0)"/>
<path d="" fill="#C5C562" transform="translate(0,0)"/>
<path d="" fill="#C5C562" transform="translate(0,0)"/>
<path d="" fill="#C5C562" transform="translate(0,0)"/>
<path d="" fill="#C5C5C5" transform="translate(0,0)"/>
<path d="" fill="#C5C5C5" transform="translate(0,0)"/>
<path d="" fill="#C5C562" transform="translate(0,0)"/>
<path d="" fill="#C5C562" transform="translate(0,0)"/>
<path d="" fill="#C5C5C5" transform="translate(0,0)"/>
<path d="" fill="#C5C5C5" transform="translate(0,0)"/>
<path d="" fill="#C5C5C5" transform="translate(0,0)"/>
<path d="" fill="#C5C5C5" transform="translate(0,0)"/>
<path d="" fill="#C5C5C5" transform="translate(0,0)"/>
<path d="" fill="#C5C5C5" transform="translate(0,0)"/>
<path d="" fill="#C5C5C5" transform="translate(0,0)"/>
<path d="" fill="#C5C5C5" transform="translate(0,0)"/>
<path d="" fill="#C5C562" transform="translate(0,0)"/>
<path d="" fill="#C5C5C5" transform="translate(0,0)"/>
<path d="" fill="#C5C5C5" transform="translate(0,0)"/>
<path d="" fill="#C5C5C5" transform="translate(0,0)"/>
<path d="" fill="#C5C562" transform="translate(0,0)"/>
<path d="" fill="#C5C5C5" transform="translate(0,0)"/>
<path d="" fill="#C5C5C5" transform="translate(0,0)"/>
<path d="" fill="#C5C5C5" transform="translate(0,0)"/>
<path d="" fill="#C5C5C5" transform="translate(0,0)"/>
<path d="" fill="#C6C6C6" transform="translate(0,0)"/>
<path d="" fill="#C5C5C5" transform="translate(0,0)"/>
<path d="" fill="#C5C500" transform="translate(0,0)"/>
<path d="" fill="#C5C562" transform="translate(0,0)"/>
<path d="" fill="#C5C5C5" transform="translate(0,0)"/>
<path d="" fill="#C5C562" transform="translate(0,0)"/>
<path d="" fill="#C5C5C5" transform="translate(0,0)"/>
<path d="" fill="#C5C5C5" transform="translate(0,0)"/>
<path d="" fill="#C5C5C5" transform="translate(0,0)"/>
<path d="" fill="#C5C5C5" transform="translate(0,0)"/>
<path d="" fill="#C5C5C5" transform="translate(0,0)"/>
<path d="" fill="#C5C5C5" transform="translate(0,0)"/>
<path d="" fill="#00C500" transform="translate(0,0)"/>
<path d="" fill="#000000" transform="translate(0,0)"/>
<path d="" fill="#000000" transform="translate(0,0)"/>
</svg>
